<?xml version="1.0" encoding="utf-8"?>
<!-- Generator: Adobe Illustrator 25.4.1, SVG Export Plug-In . SVG Version: 6.00 Build 0)  -->
<svg version="1.1" id="Layer_1" xmlns="http://www.w3.org/2000/svg" xmlns:xlink="http://www.w3.org/1999/xlink" x="0px" y="0px"
	 viewBox="0 0 1092.1 1892.3" style="enable-background:new 0 0 1092.1 1892.3;" xml:space="preserve">
<style type="text/css">
	.st0{fill:url(#Asset_10_00000079477910465506444850000008405498887920500144_);}
	.st1{fill:#E34500;}
	.st2{opacity:0.1;}
	.st3{fill:#E9F0E3;}
	.st4{fill:none;}
	.st5{fill:none;stroke:#FFFFFF;}
	.st6{font-family:'Oswald-Medium';}
	.st7{font-size:69.22px;}
	.st8{letter-spacing:-2;}
	.st9{letter-spacing:-3;}
	.st10{clip-path:url(#SVGID_00000045617374602261677800000013316164871057769129_);}
	.st11{fill:#FFFFFF;}
	.st12{fill:#E14925;}
	.st13{font-family:'ArialMT';}
	.st14{font-size:11px;}
	.st15{clip-path:url(#SVGID_00000068658388612113444180000011021221118623302797_);}
	.st16{fill:#6B6B6B;}
</style>
<g id="Group_363" transform="translate(15863.001 3280)">
	
		<linearGradient id="Asset_10_00000159445215436852237030000000089428299669636286_" gradientUnits="userSpaceOnUse" x1="-15862.96" y1="-3134.01" x2="-14770.96" y2="-3134.01">
		<stop  offset="0" style="stop-color:#5F653E"/>
		<stop  offset="1" style="stop-color:#4B5347"/>
	</linearGradient>
	
		<rect id="Asset_10_00000142855728227571722410000012270314474006263226_" x="-15863" y="-3280" style="fill:url(#Asset_10_00000159445215436852237030000000089428299669636286_);" width="1092" height="292"/>
	<g id="Group_362" transform="translate(-15863.001 -3280)">
		<g id="Layer_1_00000084521515918630943650000009209594656137468581_" transform="translate(0 0)">
			<rect id="Rectangle_875" y="292" class="st1" width="1092.1" height="1600.3"/>
			<g id="Group_248" transform="translate(77.05 303.583)">
				<g id="Group_244" class="st2">
					<path id="Path_141" class="st3" d="M32.7-0.5C22.9-0.5,14.9,2.2,9,7.6C3.1,13.1,0.2,21,0.2,30.7c0,6.8,1.3,12.6,4,17.4
						c2.7,4.8,6.3,9.1,10.5,12.6l15,13.2l0,0c3.4,2.8,6.5,6.1,9.1,9.6c2.1,2.9,3.2,6.8,3.2,11.7c0.1,2.4-0.5,4.9-1.9,6.9
						c-1,1.5-2.7,2.3-5.9,2.3c-2.3,0.1-4.6-0.7-6.2-2.3c-1.9-2.1-3.2-4.6-3.8-7.3c-1-3.9-1.5-7.8-1.6-11.8L22.4,81L0,85.4L0.1,87
						c0.3,8,1.7,14.9,4.3,20.5c2.4,5.5,6.5,10.1,11.6,13.1c5.2,3,11.5,4.4,18.8,4.4h0c5.8,0.1,11.5-1.2,16.5-4l-0.9-1.6l0.9,1.6
						c4.7-2.6,8.5-6.4,11.1-11.1c2.7-4.9,4.1-10.4,4-16c0-8.1-1.8-15.2-5.5-21c-3.5-5.6-7.9-10.6-12.9-14.9L33.3,45
						c-2.6-2.2-4.9-4.8-6.9-7.6c-1.6-2.7-2.3-5.8-2.2-8.9c-0.1-2.4,0.7-4.8,2.1-6.7c1.3-1.6,3.1-2.4,6-2.5c2.8,0,4.6,0.7,5.8,1.9
						c1.5,1.7,2.5,3.8,2.9,6c0.7,3.2,1.1,6.4,1.2,9.7l0.1,2.1l22.3-3.9l-0.1-1.7c-0.3-4.3-1-8.5-2.1-12.6c-1.1-3.9-2.8-7.6-5.2-11
						c-2.5-3.4-5.8-6-9.6-7.7C42.8,0.3,37.8-0.7,32.7-0.5L32.7-0.5 M32.1,71.1L17.1,58l0,0c-3.9-3.3-7.1-7.2-9.6-11.6
						C5.2,42.2,4,37.1,4,30.7c0-9,2.6-15.7,7.6-20.3c5.1-4.7,12-7.1,21.2-7.1h0c4.5-0.1,9,0.7,13.1,2.4c3.2,1.4,6,3.7,8.1,6.5
						c2.1,2.9,3.7,6.2,4.6,9.8c0.9,3.3,1.5,6.7,1.9,10.2l-14.7,2.6c-0.2-2.7-0.6-5.5-1.2-8.2c-0.5-2.9-1.9-5.6-3.9-7.8
						c-2-2.1-5-3.1-8.4-3.1h-0.1c0,0-0.1,0-0.1,0c-3.4-0.1-6.6,1.3-8.8,3.9c-2,2.6-3.1,5.8-3,9c-0.1,3.8,0.8,7.6,2.8,10.9
						c2.1,3.1,4.6,6,7.5,8.4l14.8,13.1l0,0c4.8,4,8.9,8.7,12.2,14c3.3,5.2,4.9,11.5,4.9,19c0.1,5-1.1,9.8-3.5,14.2
						c-2.3,4.1-5.6,7.4-9.7,9.6c-4.5,2.4-9.6,3.6-14.7,3.5c-6.9,0-12.5-1.3-17-3.9c-4.5-2.6-8-6.6-10.1-11.4
						c-2.4-5.5-3.7-11.5-3.9-17.5l14.9-2.9c0.2,3.5,0.8,7,1.6,10.4c0.8,3.4,2.4,6.5,4.7,9c2.4,2.3,5.5,3.5,8.8,3.4h0.2
						c3.8,0,7-1.3,8.9-4c1.8-2.7,2.7-5.9,2.5-9.1c0-5.5-1.2-10.1-3.9-13.9C39,77.6,35.7,74.2,32.1,71.1 M654.4,0.8h-23.8l-12.4,42.5
						L604.9,0.8h-24.2l24.8,75.7v47h24.5V76.6L654.4,0.8z M609.2,119.7V76L585.9,4.6h16.3l16.1,51.8l15.2-51.8h15.8L626.1,76v43.8
						L609.2,119.7z M552.4,0.8h-26.3l-24.5,122.7h24.3l0.3-1.6l4.6-25.9h17.5l4.7,27.5h24L552.4,0.8z M506.1,119.7l23-115.1h20.1
						l23,115.1h-16.2l-4.7-27.5h-23.9l-4.8,27.5L506.1,119.7z M448.2,0.8h-29.9v122.7h30.8c9.5,0,17.1-1.4,22.8-4.4
						c5.7-2.9,10-7.8,12.3-13.7c2.4-6,3.6-13.4,3.6-22.2V39.7c0-8.6-1.2-15.8-3.6-21.6c-2.4-5.8-6.8-10.5-12.5-13.1
						C465.9,2.1,458.1,0.8,448.2,0.8 M422.1,119.7V4.6h26.2c9.5,0,16.8,1.3,21.8,3.8c4.8,2.3,8.7,6.3,10.7,11.2
						c2.2,5.2,3.3,11.9,3.3,20.1v43.5c0,8.4-1.1,15.4-3.3,20.8c-1.9,5.1-5.7,9.3-10.6,11.8c-4.9,2.6-11.9,4-21,4L422.1,119.7
						L422.1,119.7z M357.8,0.8h-30.4v122.7h25.5V69h6.6l14.4,54.5h25.7l-16.8-59.4c3.1-1.4,5.8-3.5,8-6.2c2.4-3.1,4-6.7,4.8-10.5
						c1-4.4,1.4-8.9,1.4-13.3c0-8.1-1.5-14.8-4.6-19.8c-3.2-5-8-8.7-13.6-10.5C372.9,1.8,365.9,0.8,357.8,0.8 M331.2,119.7V4.6h26.6
						c7.9,0,14.4,0.9,19.7,2.8c4.8,1.5,8.9,4.7,11.6,9c2.6,4.2,4,10.1,4,17.8c0,4.2-0.4,8.4-1.3,12.5c-0.7,3.3-2.1,6.4-4.1,9
						c-2.1,2.6-4.8,4.5-7.9,5.6l-1.6,0.6l16.4,57.8h-17.8l-14.4-54.5h-13.3v54.5L331.2,119.7z M305.3,0.8h-24.8v84.8
						c0,3.4-0.2,6.8-0.8,10.2c-0.3,2.6-1.3,5-2.9,7c-1.2,1.4-3.3,2.3-6.9,2.3c-3.3,0-5.4-0.9-6.8-2.4c-1.7-2-2.7-4.4-3-6.9
						c-0.5-3.4-0.7-6.8-0.7-10.2V0.8h-24.9v82.3c-0.1,7.4,0.8,14.8,2.9,22c1.8,6.1,5.6,11.3,10.9,14.8c5.3,3.5,12.6,5.2,21.6,5.2
						c9.1,0,16.4-1.6,21.7-5.2l-1-1.6l1,1.6c5.2-3.5,9.1-8.8,10.8-14.8c2.1-7.1,3-14.6,2.9-22L305.3,0.8z M270.1,109
						c4.1,0,7.5-1.1,9.7-3.7c2.1-2.5,3.4-5.6,3.8-8.8c0.6-3.6,0.8-7.2,0.8-10.8V4.6h17.2v78.6c0.1,7.1-0.8,14.1-2.7,20.9
						c-1.5,5.2-4.8,9.8-9.3,12.8l0,0c-4.4,2.9-10.9,4.5-19.5,4.5H270c-8.6,0-15-1.6-19.5-4.5c-4.5-3-7.9-7.5-9.4-12.8
						c-1.9-6.8-2.8-13.8-2.7-20.9V4.6h17.4v81.1c0,3.6,0.2,7.2,0.8,10.8c0.4,3.3,1.8,6.4,3.9,8.9c2.2,2.5,5.6,3.6,9.5,3.6L270.1,109
						L270.1,109 M219.6,0.8h-63.1v19.8h18.9v102.9H201V20.6h18.6L219.6,0.8z M160.3,16.8V4.6h55.5v12.2h-18.6v102.9h-18V16.8
						L160.3,16.8z M128.1,0.8h-26.3L77.3,123.5h24.3l0.3-1.6l4.6-25.9H124l4.7,27.5h24L128.1,0.8z M81.9,119.7l23-115.1H125
						l23,115.1h-16.2l-4.7-27.5h-23.9l-4.8,27.5L81.9,119.7z M359,15.7h-9.8v1.9l0,0v37.9h8.6c4.4,0,8-0.6,10.9-2
						c2.9-1.4,5.1-3.9,6.3-6.9c1.3-3.5,1.9-7.3,1.7-11c0-6.2-1.1-11.1-3.7-14.6C370.3,17.2,365.4,15.7,359,15.7 M352.9,19.4h6
						c5.9,0,9.4,1.5,11,3.7c1.8,2.5,2.9,6.6,2.9,12.3c0.1,3.3-0.4,6.6-1.5,9.6c-0.8,2.1-2.4,3.9-4.4,4.9c-2.9,1.2-6,1.8-9.2,1.6
						h-4.9L352.9,19.4z M448.2,16.2H440v1.9l0,0v90.3h8.5c5.2,0,9.2-0.9,11.9-3.1c2.6-2.3,4.3-5.4,4.6-8.9c0.5-4.2,0.8-8.4,0.8-12.7
						V38.2c0.1-4-0.3-8.1-1.1-12c-0.6-3.1-2.4-5.9-5.1-7.6C456.9,16.9,453.2,16.3,448.2,16.2 M443.8,20h4.6c4.5,0,7.7,0.7,9.3,1.8
						c1.8,1.2,3.1,3.1,3.4,5.3c0.7,3.7,1.1,7.4,1,11.2v45.5c0,4.1-0.2,8.1-0.7,12.1c-0.2,2.5-1.4,4.9-3.3,6.5
						c-1.6,1.3-4.7,2.2-9.4,2.2h-4.8L443.8,20z M539.4,18.7l-1.9,11.5l-8.4,52.1h20.6L539.4,18.7z M537.5,30.8l1.9-0.3L537.5,30.8z
						 M533.5,78.5l5.9-36.2l5.9,36.2H533.5z M115.1,18.7l-1.9,11.5l-8.4,52.1h20.6L115.1,18.7z M113.3,30.8l1.9-0.3L113.3,30.8z
						 M109.3,78.5l5.9-36.2l5.9,36.2H109.3z"/>
					<path id="Path_142" class="st3" d="M32.7,138.5c-9.8,0-17.8,2.7-23.7,8.1c-5.9,5.5-8.8,13.4-8.8,23.1c0,6.8,1.3,12.6,4,17.4
						c2.7,4.8,6.3,9.1,10.5,12.6l15,13.2l0,0c3.4,2.8,6.5,6.1,9.1,9.6c2.1,2.9,3.2,6.8,3.2,11.7c0.1,2.4-0.5,4.9-1.9,6.9
						c-1,1.5-2.7,2.3-5.9,2.3c-2.3,0.1-4.6-0.7-6.2-2.3c-1.9-2.1-3.2-4.6-3.8-7.3c-1-3.9-1.5-7.8-1.6-11.8l-0.1-2.2L0,224.4l0.1,1.6
						c0.3,8,1.7,14.9,4.3,20.5c2.4,5.5,6.5,10.1,11.6,13.1c5.2,3,11.5,4.4,18.8,4.4h0c5.8,0.1,11.5-1.2,16.5-4l-0.9-1.6l0.9,1.6
						c4.7-2.6,8.5-6.4,11.1-11.1c2.7-4.9,4.1-10.4,4-16c0-8.1-1.8-15.2-5.5-21c-3.5-5.6-7.9-10.6-12.9-14.9L33.3,184
						c-2.6-2.2-4.9-4.8-6.9-7.6c-1.6-2.7-2.3-5.8-2.2-8.9c-0.1-2.4,0.7-4.8,2.1-6.7c1.3-1.6,3.1-2.4,6-2.5c2.8,0,4.6,0.7,5.8,1.9
						c1.5,1.7,2.5,3.8,2.9,6c0.7,3.2,1.1,6.4,1.2,9.7l0.1,2.1l22.3-3.9l-0.1-1.7c-0.3-4.3-1-8.5-2.1-12.6c-1.1-3.9-2.8-7.6-5.2-11
						c-2.5-3.4-5.8-6-9.6-7.7C42.8,139.2,37.8,138.3,32.7,138.5L32.7,138.5 M32.1,210.1l-14.9-13.2l0,0c-3.9-3.3-7.1-7.2-9.6-11.6
						C5.2,181.2,4,176,4,169.7c0-9,2.6-15.7,7.6-20.3c5.1-4.7,12-7.1,21.2-7.1h0c4.5-0.1,9,0.7,13.1,2.4c3.2,1.4,6,3.7,8.1,6.5
						c2.1,2.9,3.7,6.2,4.6,9.7c0.9,3.3,1.5,6.7,1.9,10.2l-14.7,2.6c-0.2-2.7-0.6-5.5-1.2-8.2c-0.5-2.9-1.9-5.6-3.9-7.8
						c-2-2.1-5-3.1-8.4-3.1h-0.2c-3.4-0.1-6.6,1.3-8.8,3.9c-2,2.6-3.1,5.8-3,9c-0.1,3.8,0.8,7.6,2.8,10.9c2.1,3.1,4.6,6,7.5,8.4
						l14.8,13.1l0,0c4.8,4,8.9,8.7,12.2,14c3.3,5.2,4.9,11.5,4.9,19c0.1,5-1.1,9.8-3.5,14.2c-2.3,4.1-5.6,7.4-9.7,9.6
						c-4.5,2.4-9.6,3.6-14.7,3.5c-6.9,0-12.5-1.3-17-3.9c-4.5-2.6-8-6.6-10.1-11.4c-2.4-5.5-3.7-11.5-3.9-17.5l14.9-2.9
						c0.2,3.5,0.8,7,1.6,10.4c0.8,3.4,2.4,6.5,4.7,9c2.4,2.3,5.5,3.5,8.8,3.4h0.2c3.8,0,7-1.3,8.9-4c1.8-2.7,2.7-5.9,2.5-9.1
						c0-5.5-1.2-10.1-3.9-13.9C39,216.6,35.7,213.1,32.1,210.1 M654.4,139.8h-23.8l-12.4,42.5l-13.2-42.5h-24.2l24.8,75.7v46.9h24.5
						v-46.9L654.4,139.8z M618.2,195.3l15.2-51.8h15.8l-23.1,71.4v43.8h-16.9v-43.8l-23.4-71.4h16.3L618.2,195.3z M552.4,139.8
						h-26.3l-24.5,122.7h24.3l0.3-1.6l4.6-25.9h17.5l4.7,27.5h24L552.4,139.8z M506.1,258.7l23-115.1h20.1l23,115.1h-16.2l-4.7-27.5
						h-23.9l-4.8,27.5H506.1z M448.2,139.8h-29.9v122.7h30.8c9.5,0,17.1-1.4,22.8-4.4c5.7-2.9,10-7.8,12.3-13.7
						c2.4-6,3.6-13.4,3.6-22.2v-43.4c0-8.6-1.2-15.8-3.6-21.6c-2.4-5.8-6.8-10.5-12.5-13.1C465.9,141.1,458.1,139.8,448.2,139.8
						 M422.1,258.7V143.5h26.2h0.1c9.5,0,16.8,1.3,21.8,3.8c4.8,2.3,8.7,6.3,10.7,11.2c2.2,5.2,3.3,11.9,3.3,20.1v43.5
						c0,8.4-1.1,15.4-3.3,20.8c-1.9,5.1-5.7,9.3-10.6,11.8c-4.9,2.6-11.9,4-21,4L422.1,258.7L422.1,258.7z M357.8,139.8h-30.4v122.7
						h25.5V208h6.6l14.4,54.5h25.7l-16.8-59.4c3.1-1.4,5.8-3.5,8-6.2c2.4-3.1,4-6.7,4.8-10.5c1-4.4,1.4-8.9,1.4-13.3
						c0-8.1-1.5-14.8-4.6-19.8c-3.2-5-8-8.7-13.6-10.5C372.9,140.7,365.9,139.8,357.8,139.8 M331.2,258.7V143.5h26.6
						c7.9,0,14.4,0.9,19.7,2.8c4.8,1.5,8.9,4.7,11.6,9c2.6,4.2,4,10.1,4,17.8c0,4.2-0.4,8.4-1.3,12.5c-0.7,3.3-2.1,6.4-4.1,9
						c-2.1,2.6-4.8,4.5-7.9,5.6l-1.6,0.6l16.4,57.8h-17.8l-14.4-54.5h-13.3v54.5H331.2z M305.3,139.8h-24.8v84.8
						c0,3.4-0.2,6.8-0.8,10.2c-0.3,2.6-1.3,5-2.9,7c-1.2,1.4-3.3,2.3-6.9,2.3c-3.3,0-5.4-0.9-6.8-2.4c-1.7-2-2.7-4.4-3-6.9
						c-0.5-3.4-0.7-6.8-0.7-10.2v-84.8h-24.9v82.3c-0.1,7.4,0.8,14.8,2.9,22c1.8,6.1,5.6,11.3,10.9,14.8c5.3,3.5,12.6,5.2,21.6,5.2
						c9.1,0,16.4-1.6,21.7-5.2l-1-1.6l1,1.6c5.2-3.5,9.1-8.8,10.8-14.8c2.1-7.1,3-14.6,2.9-22L305.3,139.8z M270.1,247.9
						c4.1,0,7.5-1.1,9.7-3.7c2.1-2.5,3.4-5.6,3.8-8.8c0.6-3.6,0.8-7.2,0.8-10.8v-81.1h17.2v78.6c0.1,7.1-0.8,14.1-2.7,20.9
						c-1.5,5.2-4.8,9.8-9.3,12.8l0,0c-4.4,2.9-10.9,4.5-19.5,4.5H270c-8.6,0-15-1.6-19.5-4.5c-4.5-3-7.9-7.5-9.4-12.8
						c-1.9-6.8-2.8-13.8-2.7-20.9v-78.6h17.4v81.1c0,3.6,0.2,7.2,0.8,10.8c0.4,3.3,1.8,6.4,3.9,8.9c2.2,2.5,5.6,3.6,9.5,3.6
						L270.1,247.9 M219.6,139.8h-63.1v19.8h18.9v102.9H201V159.5h18.6L219.6,139.8z M160.3,155.8v-12.2h55.5v12.2h-18.6v102.9h-18
						V155.8L160.3,155.8z M128.1,139.8h-26.3L77.3,262.5h24.3l0.3-1.6l4.6-25.9H124l4.7,27.5h24L128.1,139.8z M81.9,258.7l23-115.1
						H125l23,115.1h-16.2l-4.7-27.5h-23.9l-4.8,27.5H81.9z M359,154.6h-9.8v1.9l0,0v37.8h8.6c4.4,0,8-0.6,10.9-2
						c2.9-1.4,5.1-3.9,6.3-6.9c1.3-3.5,1.9-7.3,1.7-11c0-6.2-1.1-11.1-3.7-14.6C370.3,156.1,365.4,154.6,359,154.6 M352.9,158.4h6
						c5.9,0,9.4,1.5,11,3.7c1.8,2.5,2.9,6.6,2.9,12.3c0.1,3.3-0.4,6.6-1.5,9.7c-0.8,2.1-2.4,3.9-4.4,4.9c-2.9,1.2-6,1.8-9.2,1.6
						h-4.9L352.9,158.4z M448.2,155.2H440v1.9l0,0v90.3h8.5c5.2,0,9.2-0.9,11.9-3.1c2.6-2.3,4.3-5.4,4.6-8.9
						c0.5-4.2,0.8-8.4,0.8-12.7v-45.5c0.1-4-0.3-8.1-1.1-12c-0.6-3.1-2.4-5.9-5.1-7.6C456.9,155.9,453.2,155.2,448.2,155.2
						 M443.8,159h4.6c4.5,0,7.7,0.7,9.3,1.8c1.8,1.2,3.1,3.1,3.4,5.3c0.7,3.7,1.1,7.4,1,11.2v45.5c0,4.1-0.2,8.1-0.7,12.1
						c-0.2,2.5-1.4,4.9-3.3,6.5c-1.6,1.3-4.7,2.2-9.4,2.2h-4.8L443.8,159z M539.4,157.6l-1.9,11.5l-8.4,52.1h20.6L539.4,157.6z
						 M537.5,169.7l1.9-0.3L537.5,169.7z M533.5,217.4l5.9-36.2l5.9,36.2H533.5z M115.1,157.6l-1.9,11.5l-8.4,52.1h20.6L115.1,157.6
						z M113.3,169.7l1.9-0.3L113.3,169.7z M109.3,217.4l5.9-36.2l5.9,36.2H109.3z"/>
					<path id="Path_143" class="st3" d="M32.7,277.4c-9.8,0-17.8,2.7-23.7,8.1c-5.9,5.5-8.8,13.4-8.8,23.1c0,6.8,1.3,12.6,4,17.4
						c2.7,4.8,6.3,9,10.5,12.6l15,13.2l0,0c3.4,2.8,6.5,6.1,9.1,9.6c2.1,2.9,3.2,6.8,3.2,11.7c0.1,2.4-0.5,4.9-1.9,6.9
						c-1,1.5-2.8,2.3-5.9,2.4c-2.3,0.1-4.6-0.7-6.2-2.3c-1.9-2.1-3.2-4.6-3.8-7.3c-1-3.9-1.5-7.8-1.6-11.8l-0.1-2.2L0,363.3l0.1,1.6
						c0.3,8,1.7,14.9,4.3,20.5c2.4,5.5,6.5,10.1,11.6,13.1c5.1,3,11.5,4.4,18.8,4.4h0c5.8,0.1,11.5-1.2,16.5-4l-0.9-1.6l0.9,1.6
						c4.7-2.6,8.5-6.4,11.1-11.1c2.7-4.9,4.1-10.4,4-16c0-8.1-1.8-15.2-5.5-21c-3.5-5.6-7.9-10.6-12.9-14.9l-14.8-13.1
						c-2.6-2.2-4.9-4.8-6.9-7.6c-1.6-2.7-2.3-5.8-2.2-8.9c-0.1-2.4,0.7-4.8,2.1-6.7c1.3-1.6,3.1-2.4,6-2.5c2.8,0,4.6,0.7,5.8,1.9
						c1.5,1.7,2.5,3.8,2.9,6c0.7,3.2,1.1,6.4,1.2,9.7l0.1,2.1l22.3-3.9l-0.1-1.7c-0.3-4.3-1-8.5-2.1-12.6c-1.1-3.9-2.8-7.6-5.2-11
						c-2.5-3.4-5.8-6-9.6-7.7C42.8,278.2,37.8,277.2,32.7,277.4L32.7,277.4 M32.1,349l-15-13.2l0,0c-3.9-3.3-7.1-7.2-9.6-11.6
						C5.2,320.1,4,315,4,308.7c0-9,2.6-15.7,7.6-20.3c5.1-4.7,12-7.1,21.2-7.1h0c4.5-0.1,9,0.7,13.1,2.4c3.2,1.4,6,3.7,8.1,6.5
						c2.1,2.9,3.7,6.2,4.6,9.7c0.9,3.3,1.5,6.7,1.9,10.2l-14.7,2.6c-0.2-2.7-0.6-5.5-1.1-8.2c-0.5-2.9-1.9-5.6-3.9-7.8
						c-2-2.1-5-3.1-8.4-3.1h-0.2c-3.4-0.1-6.6,1.3-8.8,3.9c-2,2.6-3.1,5.8-3,9c-0.1,3.8,0.8,7.6,2.8,10.9c2.1,3.1,4.6,6,7.5,8.4
						l14.8,13.1l0,0c4.8,4,8.9,8.7,12.2,14c3.3,5.2,4.9,11.5,4.9,19c0.1,5-1.1,9.8-3.5,14.2c-2.3,4.1-5.6,7.4-9.7,9.6l0,0
						c-4.5,2.4-9.6,3.6-14.7,3.5c-6.9,0-12.5-1.3-17-3.9c-4.5-2.6-8-6.6-10.1-11.4c-2.4-5.5-3.7-11.5-3.9-17.5l14.9-2.9
						c0.2,3.5,0.8,7,1.6,10.4c0.8,3.4,2.4,6.5,4.7,9c2.4,2.3,5.5,3.5,8.8,3.4h0.1c0,0,0.1,0,0.1,0c3.8,0,7-1.3,8.9-4
						c1.8-2.7,2.7-5.9,2.5-9.1c0-5.5-1.2-10.1-3.9-13.9C39,355.5,35.7,352.1,32.1,349 M654.4,278.7h-23.8l-12.4,42.5l-13.2-42.5
						h-24.2l24.8,75.7v46.9h24.5v-46.9L654.4,278.7z M609.2,397.6v-43.8l-23.4-71.4h16.3l16.1,51.8l15.2-51.8h15.8l-23.1,71.4v43.8
						H609.2z M552.4,278.7h-26.3l-24.5,122.7h24.3l0.3-1.6l4.6-25.9h17.5l4.7,27.5h24L552.4,278.7z M506.1,397.6l23-115.1h20.1
						l23,115.1h-16.2l-4.7-27.5h-23.9l-4.8,27.5H506.1z M448.2,278.7h-29.9v122.7h30.8c9.5,0,17.1-1.4,22.8-4.4
						c5.7-2.9,10-7.8,12.3-13.7c2.4-6,3.6-13.4,3.6-22.2v-43.4c0-8.6-1.2-15.8-3.6-21.6c-2.4-5.8-6.8-10.5-12.5-13.2
						C465.9,280.1,458.1,278.7,448.2,278.7 M422.1,397.6V282.5h26.2c9.5,0,16.8,1.3,21.8,3.8c4.8,2.3,8.7,6.3,10.7,11.2
						c2.2,5.2,3.3,11.9,3.3,20.1v43.5c0,8.4-1.1,15.4-3.3,20.8c-1.9,5.1-5.7,9.3-10.6,11.8c-4.9,2.6-11.9,4-21,4L422.1,397.6
						L422.1,397.6z M357.8,278.7h-30.4v122.7h25.5v-54.5h6.6l14.4,54.5h25.7L382.8,342c3.1-1.4,5.8-3.5,8-6.2
						c2.4-3.1,4-6.7,4.8-10.5c1-4.4,1.4-8.9,1.4-13.3c0-8.1-1.5-14.8-4.6-19.8c-3.2-5-8-8.7-13.6-10.5
						C372.9,279.7,365.9,278.7,357.8,278.7 M331.2,397.6V282.5h26.6c7.9,0,14.4,0.9,19.7,2.8c4.8,1.5,8.9,4.7,11.6,9
						c2.6,4.2,4,10.1,4,17.8c0,4.2-0.4,8.4-1.3,12.5c-0.7,3.3-2.1,6.4-4.1,9c-2.1,2.6-4.8,4.5-7.9,5.6l-1.6,0.6l16.4,57.8h-17.8
						l-14.4-54.5h-13.3v54.5L331.2,397.6z M305.4,278.7h-24.8v84.8c0,3.4-0.2,6.8-0.8,10.2c-0.3,2.6-1.3,5-2.9,7
						c-1.2,1.4-3.3,2.3-6.9,2.3c-3.3,0-5.4-0.9-6.7-2.4c-1.7-2-2.7-4.4-3-6.9c-0.5-3.4-0.7-6.8-0.7-10.2v-84.8h-24.9v82.3
						c-0.1,7.4,0.8,14.8,2.9,22c1.8,6.1,5.6,11.3,10.9,14.8c5.3,3.5,12.6,5.2,21.6,5.2c9.1,0,16.4-1.6,21.7-5.2l-1-1.6l1,1.6
						c5.2-3.5,9.1-8.8,10.8-14.8c2.1-7.1,3-14.6,2.9-22V278.7z M270.1,386.9c4.1,0,7.5-1.1,9.7-3.7c2.1-2.5,3.4-5.6,3.8-8.8
						c0.6-3.6,0.8-7.2,0.8-10.8v-81.1h17.2v78.6c0.1,7.1-0.8,14.1-2.7,20.9c-1.5,5.2-4.8,9.8-9.3,12.8c-4.4,2.9-10.9,4.5-19.5,4.5
						H270c-8.6,0-15-1.6-19.5-4.5c-4.5-3-7.9-7.5-9.4-12.8c-1.9-6.8-2.8-13.8-2.7-20.9v-78.6h17.4v81.1c0,3.6,0.2,7.2,0.8,10.8
						c0.4,3.3,1.8,6.4,3.9,8.9c2.2,2.5,5.6,3.6,9.5,3.6H270.1 M219.6,278.7h-63.1v19.8h18.9v102.9H201V298.5h18.6L219.6,278.7z
						 M160.3,294.7v-12.2h55.5v12.2h-18.6v102.9h-18V294.7L160.3,294.7z M128.1,278.7h-26.3L77.3,401.4h24.3l0.3-1.6l4.6-25.9H124
						l4.7,27.5h24L128.1,278.7z M81.9,397.6l23-115.1H125l23,115.1h-16.2l-4.7-27.5h-23.9l-4.8,27.5H81.9z M359,293.6h-9.8v1.9l0,0
						v37.8h8.6c4.4,0,8-0.6,10.9-2c2.9-1.4,5.1-3.9,6.3-6.9c1.3-3.5,1.9-7.3,1.8-11c0-6.2-1.1-11.1-3.7-14.6
						C370.3,295.1,365.4,293.6,359,293.6 M352.9,297.3h6c5.9,0,9.4,1.5,11,3.7c1.8,2.5,2.9,6.6,2.9,12.3c0.1,3.3-0.4,6.6-1.5,9.6
						c-0.8,2.1-2.4,3.9-4.4,4.9c-2.9,1.2-6,1.8-9.2,1.6h-4.9L352.9,297.3z M448.2,294.1H440v1.9l0,0v90.3h8.5
						c5.2,0,9.2-0.9,11.9-3.1c2.6-2.3,4.3-5.4,4.6-8.9c0.5-4.2,0.8-8.4,0.8-12.7v-45.5c0.1-4-0.3-8.1-1.1-12
						c-0.6-3.1-2.4-5.9-5.1-7.6C456.9,294.8,453.2,294.2,448.2,294.1 M443.8,297.9h4.6c4.5,0,7.7,0.7,9.3,1.8
						c1.8,1.2,3.1,3.1,3.4,5.3c0.7,3.7,1.1,7.4,1,11.2v45.5c0,4.1-0.2,8.1-0.7,12.1c-0.2,2.5-1.4,4.9-3.3,6.5
						c-1.6,1.3-4.7,2.2-9.4,2.2h-4.8L443.8,297.9z M539.4,296.5l-1.9,11.5l-8.4,52.1h20.6L539.4,296.5z M537.5,308.7l1.9-0.3
						L537.5,308.7z M533.5,356.4l5.9-36.2l5.9,36.2H533.5z M115.1,296.5l-1.9,11.5l-8.4,52.1h20.6L115.1,296.5z M113.3,308.7
						l1.9-0.3L113.3,308.7z M109.3,356.4l5.9-36.2l5.9,36.2H109.3z"/>
					<path id="Path_144" class="st3" d="M32.7,416.4c-9.8,0-17.8,2.7-23.7,8.1c-5.9,5.5-8.8,13.4-8.8,23.1c0,6.8,1.3,12.6,4,17.4
						c2.7,4.8,6.3,9,10.5,12.6l15,13.2l0,0c3.4,2.8,6.5,6.1,9.1,9.6c2.1,2.9,3.2,6.8,3.2,11.7c0.1,2.4-0.5,4.9-1.9,6.9
						c-1,1.5-2.7,2.3-5.9,2.3c-2.3,0.1-4.6-0.7-6.2-2.3c-1.9-2.1-3.2-4.6-3.8-7.3c-1-3.9-1.5-7.8-1.6-11.8l-0.1-2.2L0,502.3l0.1,1.6
						c0.3,8,1.7,14.9,4.3,20.5c2.4,5.5,6.5,10.1,11.6,13.1c5.2,3,11.5,4.4,18.8,4.4h0c5.8,0.1,11.5-1.2,16.5-4l-0.9-1.6l0.9,1.6
						c4.7-2.6,8.5-6.4,11.1-11.1c2.7-4.9,4.1-10.4,4-16c0-8.1-1.8-15.2-5.5-21c-3.5-5.6-7.9-10.6-12.9-14.9l-14.8-13.1
						c-2.6-2.2-4.9-4.8-6.9-7.6c-1.6-2.7-2.3-5.8-2.2-8.9c-0.1-2.4,0.7-4.8,2.1-6.7c1.3-1.6,3.1-2.4,6-2.5c2.8,0,4.6,0.7,5.8,1.9
						c1.5,1.7,2.5,3.8,2.9,6c0.7,3.2,1.1,6.4,1.2,9.7l0.1,2.1l22.3-3.9l-0.1-1.7c-0.3-4.3-1-8.5-2.1-12.6c-1.1-3.9-2.8-7.6-5.2-11
						c-2.5-3.4-5.8-6-9.6-7.7C42.8,417.1,37.8,416.2,32.7,416.4L32.7,416.4 M32.1,488l-14.9-13.2l0,0c-3.9-3.3-7.1-7.2-9.6-11.6
						c-2.3-4.1-3.5-9.3-3.5-15.6c0-9,2.6-15.7,7.6-20.3c5.1-4.7,12-7.1,21.2-7.1h0c4.5-0.1,9,0.7,13.1,2.4c3.2,1.4,6,3.7,8.1,6.5
						c2.1,2.9,3.7,6.2,4.6,9.7c0.9,3.3,1.5,6.7,1.9,10.2l-14.7,2.6c-0.2-2.7-0.6-5.5-1.2-8.2c-0.5-2.9-1.9-5.6-3.9-7.8
						c-2-2.1-5-3.1-8.4-3.1c0,0,0,0-0.1,0c0,0-0.1,0-0.1,0c-3.4-0.1-6.6,1.3-8.8,3.9c-2,2.6-3.1,5.8-3,9c-0.1,3.8,0.8,7.6,2.8,10.9
						c2.1,3.1,4.6,6,7.5,8.4l14.8,13.1l0,0c4.8,4,8.9,8.7,12.2,14c3.3,5.2,4.9,11.5,4.9,19c0.1,5-1.1,9.8-3.5,14.2
						c-2.3,4.1-5.6,7.4-9.7,9.6c-4.5,2.4-9.6,3.6-14.7,3.5c-6.9,0-12.5-1.3-17-3.9c-4.5-2.6-8-6.6-10.1-11.4
						c-2.4-5.5-3.7-11.5-3.9-17.5l14.9-2.9c0.2,3.5,0.8,7,1.6,10.4c0.8,3.4,2.4,6.5,4.7,9c2.4,2.3,5.5,3.5,8.8,3.4h0.2
						c3.8,0,7-1.3,8.9-4c1.8-2.7,2.7-5.9,2.5-9.1c0-5.5-1.2-10.1-3.9-13.9C39,494.5,35.7,491,32.1,488 M654.4,417.7h-23.8
						l-12.4,42.5l-13.2-42.5h-24.2l24.8,75.7v46.9h24.5v-46.9L654.4,417.7z M609.2,536.6v-43.8l-23.4-71.4h16.3l16.1,51.8l15.2-51.8
						h15.8l-23.1,71.4v43.8H609.2z M552.4,417.7h-26.3l-24.5,122.7h24.3l0.3-1.6l4.6-25.9h17.5l4.7,27.5h24L552.4,417.7z
						 M506.1,536.6l23-115.1h20.1l23,115.1h-16.2l-4.7-27.5h-23.9l-4.8,27.5H506.1z M448.2,417.7h-29.9v122.7h30.8
						c9.5,0,17.1-1.4,22.8-4.4c5.7-2.9,10-7.8,12.3-13.7c2.4-6,3.6-13.4,3.6-22.2v-43.4c0-8.6-1.2-15.8-3.6-21.6
						c-2.4-5.8-6.8-10.5-12.5-13.2C465.9,419,458.1,417.7,448.2,417.7 M422.1,536.6V421.5h26.2c9.5,0,16.8,1.3,21.8,3.8
						c4.8,2.3,8.7,6.3,10.7,11.2c2.2,5.2,3.3,11.9,3.3,20.1V500c0,8.4-1.1,15.4-3.3,20.8c-1.9,5.1-5.7,9.3-10.6,11.8
						c-4.9,2.6-11.9,4-21,4L422.1,536.6L422.1,536.6z M357.8,417.7h-30.4v122.7h25.5v-54.5h6.6l14.4,54.5h25.7L382.8,481
						c3.1-1.4,5.8-3.5,8-6.2c2.4-3.1,4-6.7,4.8-10.5c1-4.4,1.4-8.9,1.4-13.3c0-8.1-1.5-14.8-4.6-19.8c-3.2-5-8-8.7-13.6-10.5
						C372.9,418.6,365.9,417.7,357.8,417.7 M331.2,536.6V421.5h26.6c7.9,0,14.4,0.9,19.7,2.8c4.8,1.5,8.9,4.7,11.6,9
						c2.6,4.2,4,10.1,4,17.8c0,4.2-0.4,8.4-1.3,12.5c-0.7,3.3-2.1,6.4-4.1,9c-2.1,2.6-4.8,4.5-7.9,5.6l-1.6,0.6l16.4,57.8h-17.8
						l-14.4-54.5h-13.3v54.5H331.2z M305.3,417.7h-24.8v84.8c0,3.4-0.2,6.8-0.8,10.2c-0.3,2.6-1.3,5-2.9,7c-1.2,1.4-3.3,2.3-6.9,2.3
						c-3.3,0-5.4-0.9-6.8-2.4c-1.7-2-2.7-4.4-3-6.9c-0.5-3.4-0.7-6.8-0.7-10.2v-84.8h-24.9V500c-0.1,7.4,0.8,14.8,2.9,22
						c1.8,6.1,5.6,11.3,10.9,14.8c5.3,3.5,12.6,5.2,21.6,5.2c9.1,0,16.4-1.6,21.7-5.2l-1-1.6l1,1.6c5.2-3.5,9.1-8.8,10.8-14.8
						c2.1-7.1,3-14.6,2.9-22L305.3,417.7z M270.1,525.8c4.1,0,7.5-1.1,9.7-3.7c2.1-2.5,3.4-5.6,3.8-8.8c0.6-3.6,0.8-7.2,0.8-10.8
						v-81.1h17.2V500c0.1,7.1-0.8,14.1-2.7,20.9c-1.5,5.2-4.8,9.8-9.3,12.8l0,0c-4.4,2.9-10.9,4.5-19.5,4.5H270
						c-8.6,0-15-1.6-19.5-4.5c-4.5-3-7.9-7.5-9.4-12.8c-1.9-6.8-2.8-13.8-2.7-20.9v-78.6h17.4v81.1c0,3.6,0.2,7.2,0.8,10.8
						c0.4,3.3,1.8,6.4,3.9,8.9c2.2,2.5,5.6,3.6,9.5,3.6L270.1,525.8 M219.6,417.7h-63.1v19.8h18.9v102.9H201V437.5h18.6L219.6,417.7
						z M160.3,433.7v-12.2h55.5v12.2h-18.6v102.9h-18V433.7L160.3,433.7z M128.1,417.7h-26.3L77.3,540.4h24.3l0.3-1.6l4.6-25.9H124
						l4.7,27.5h24L128.1,417.7z M81.9,536.6l23-115.1H125l23,115.1h-16.2l-4.7-27.5h-23.9l-4.8,27.5H81.9z M359,432.5h-9.8v1.9l0,0
						v37.8h8.6c4.4,0,8-0.6,10.9-2c2.9-1.4,5.1-3.9,6.3-6.9c1.3-3.5,1.9-7.3,1.7-11c0-6.2-1.1-11.1-3.7-14.6
						C370.3,434,365.4,432.5,359,432.5 M352.9,436.3h6c5.9,0,9.4,1.5,11,3.7c1.8,2.5,2.9,6.6,2.9,12.3c0.1,3.3-0.4,6.6-1.5,9.7
						c-0.8,2.1-2.4,3.9-4.4,4.9c-2.9,1.2-6,1.8-9.2,1.6h-4.9L352.9,436.3z M448.2,433.1H440v1.9l0,0v90.3h8.5
						c5.2,0,9.2-0.9,11.9-3.1c2.6-2.3,4.3-5.4,4.6-8.9c0.5-4.2,0.8-8.4,0.8-12.7v-45.5c0.1-4-0.3-8.1-1.1-12
						c-0.6-3.1-2.4-5.9-5.1-7.6C456.9,433.8,453.2,433.1,448.2,433.1 M443.8,436.9h4.6c4.5,0,7.7,0.7,9.3,1.8
						c1.8,1.2,3.1,3.1,3.4,5.3c0.7,3.7,1.1,7.4,1,11.2v45.5c0,4.1-0.2,8.1-0.7,12.1c-0.2,2.5-1.4,4.9-3.3,6.5
						c-1.6,1.3-4.7,2.2-9.4,2.2h-4.8L443.8,436.9z M539.4,435.5l-1.9,11.5l-8.4,52.1h20.6L539.4,435.5z M537.5,447.6l1.9-0.3
						L537.5,447.6z M533.5,495.3l5.9-36.2l5.9,36.2H533.5z M115.1,435.5l-1.9,11.5l-8.4,52.1h20.6L115.1,435.5z M113.3,447.6
						l1.9-0.3L113.3,447.6z M109.3,495.3l5.9-36.2l5.9,36.2H109.3z"/>
					<path id="Path_145" class="st3" d="M32.7,555.3c-9.8,0-17.8,2.7-23.7,8.1c-5.9,5.5-8.8,13.4-8.8,23.1c0,6.8,1.3,12.6,4,17.4
						c2.7,4.8,6.3,9.1,10.5,12.6l15,13.2l0,0c3.4,2.8,6.5,6.1,9.1,9.6c2.1,2.9,3.2,6.8,3.2,11.7c0.1,2.4-0.5,4.9-1.9,6.9
						c-1,1.5-2.7,2.3-5.9,2.3c-2.3,0.1-4.6-0.7-6.2-2.3c-1.9-2.1-3.2-4.6-3.8-7.3c-1-3.9-1.5-7.8-1.6-11.8l-0.1-2.2L0,641.2l0.1,1.6
						c0.3,8,1.7,14.9,4.3,20.5c2.4,5.5,6.5,10.1,11.6,13.1c5.2,3,11.5,4.4,18.8,4.4h0c5.8,0.1,11.5-1.2,16.5-4l-0.9-1.6l0.9,1.6
						c4.7-2.6,8.5-6.4,11.1-11.1c2.7-4.9,4.1-10.4,4-16c0-8.1-1.8-15.2-5.5-21c-3.5-5.6-7.9-10.6-12.9-14.9l-14.8-13.1
						c-2.6-2.2-4.9-4.8-6.9-7.6c-1.6-2.7-2.3-5.8-2.2-8.9c-0.1-2.4,0.7-4.8,2.1-6.7c1.3-1.6,3.1-2.4,6-2.5c2.8,0,4.6,0.7,5.8,1.9
						c1.5,1.7,2.5,3.8,2.9,6c0.7,3.2,1.1,6.4,1.2,9.7l0.1,2.1l22.3-3.9l-0.1-1.7c-0.3-4.3-1-8.5-2.1-12.6c-1.1-3.9-2.8-7.6-5.2-11
						c-2.5-3.4-5.8-6-9.6-7.7C42.8,556.1,37.8,555.2,32.7,555.3L32.7,555.3 M32.1,627l-14.9-13.2l0,0c-3.9-3.3-7.1-7.2-9.6-11.6
						c-2.3-4.1-3.5-9.3-3.5-15.6c0-9,2.6-15.7,7.6-20.3c5.1-4.7,12-7.1,21.2-7.1h0c4.5-0.1,9,0.7,13.1,2.4c3.2,1.4,6,3.7,8.1,6.5
						c2.1,2.9,3.7,6.2,4.6,9.7c0.9,3.3,1.5,6.7,1.9,10.2l-14.7,2.6c-0.2-2.7-0.6-5.5-1.2-8.2c-0.5-2.9-1.9-5.6-3.9-7.8
						c-2-2.1-5-3.1-8.4-3.1h-0.2c-3.4-0.1-6.6,1.3-8.8,3.8c-2,2.6-3.1,5.8-3,9c-0.1,3.8,0.8,7.6,2.8,10.9c2.1,3.1,4.6,6,7.5,8.4
						l14.8,13.1l0,0c4.8,4,8.9,8.7,12.2,14c3.3,5.2,4.9,11.5,4.9,19c0.1,5-1.1,9.8-3.5,14.2c-2.3,4.1-5.6,7.4-9.7,9.6l0,0
						c-4.5,2.4-9.6,3.6-14.7,3.5c-6.9,0-12.5-1.3-17-3.9c-4.5-2.6-8-6.6-10.1-11.4c-2.4-5.5-3.7-11.5-3.9-17.5l14.9-2.9
						c0.2,3.5,0.8,7,1.6,10.4c0.8,3.4,2.4,6.5,4.7,9c2.4,2.3,5.5,3.5,8.8,3.4h0.2c3.8,0,7-1.2,8.9-4c1.8-2.7,2.7-5.9,2.5-9.1
						c0-5.5-1.2-10.1-3.9-13.9C39,633.5,35.7,630,32.1,627L32.1,627z M654.4,556.6h-23.8l-12.4,42.5l-13.2-42.5h-24.2l24.8,75.7
						v46.9h24.5v-46.9L654.4,556.6z M618.2,612.2l15.2-51.8h15.8l-23.1,71.4v43.8h-16.9v-43.8l-23.4-71.4h16.3L618.2,612.2z
						 M552.4,556.6h-26.3l-24.5,122.7h24.3l0.3-1.6l4.6-25.9h17.5l4.7,27.5h24L552.4,556.6z M506.1,675.5l23-115.1h20.1l23,115.1
						h-16.2l-4.7-27.5h-23.9l-4.8,27.5H506.1z M448.2,556.6h-29.9v122.7h30.8c9.5,0,17.1-1.4,22.8-4.4c5.7-2.9,10-7.8,12.3-13.7
						c2.4-6,3.6-13.4,3.6-22.2v-43.4c0-8.6-1.2-15.8-3.6-21.6c-2.4-5.8-6.8-10.5-12.5-13.1C465.9,558,458.1,556.6,448.2,556.6
						 M422.1,675.5V560.4h26.2c9.5,0,16.8,1.3,21.8,3.8c4.8,2.3,8.7,6.3,10.7,11.2c2.2,5.2,3.3,11.9,3.3,20.1V639
						c0,8.4-1.1,15.4-3.3,20.8c-1.9,5.1-5.7,9.3-10.6,11.8c-4.9,2.6-11.9,4-21,4L422.1,675.5L422.1,675.5z M357.8,556.6h-30.4v122.7
						h25.5v-54.5h6.6l14.4,54.5h25.7l-16.8-59.4c3.1-1.4,5.8-3.5,8-6.2c2.4-3.1,4-6.7,4.8-10.5c1-4.4,1.4-8.9,1.4-13.3
						c0-8.1-1.5-14.8-4.6-19.8c-3.2-5-8-8.7-13.6-10.5C372.9,557.6,365.9,556.6,357.8,556.6 M331.2,675.5V560.4h26.6
						c7.9,0,14.4,0.9,19.7,2.8c4.8,1.5,8.9,4.7,11.6,9c2.6,4.2,4,10.1,4,17.8c0,4.2-0.4,8.4-1.3,12.5c-0.7,3.3-2.1,6.4-4.1,9
						c-2.1,2.6-4.8,4.5-7.9,5.6l-1.6,0.6l16.4,57.8h-17.8l-14.4-54.5h-13.3v54.5L331.2,675.5z M305.3,556.6h-24.8v84.8
						c0,3.4-0.2,6.8-0.8,10.2c-0.3,2.6-1.3,5-2.9,7c-1.2,1.4-3.3,2.3-6.9,2.3c-3.3,0-5.4-0.9-6.8-2.4c-1.7-2-2.7-4.4-3-6.9
						c-0.5-3.4-0.7-6.8-0.7-10.2v-84.8h-24.9V639c-0.1,7.4,0.8,14.8,2.9,22c1.8,6.1,5.6,11.3,10.9,14.8c5.3,3.5,12.6,5.2,21.6,5.2
						c9.1,0,16.4-1.6,21.7-5.2l-1-1.6l1,1.6c5.2-3.5,9.1-8.8,10.8-14.8c2.1-7.1,3-14.6,2.9-22L305.3,556.6z M270.1,664.8
						c4.1,0,7.5-1.1,9.7-3.7c2.1-2.5,3.4-5.6,3.8-8.8c0.6-3.6,0.8-7.2,0.8-10.8v-81.1h17.2V639c0.1,7.1-0.8,14.1-2.7,20.9
						c-1.5,5.2-4.8,9.8-9.3,12.8c-4.4,2.9-10.9,4.5-19.6,4.5H270c-8.6,0-15-1.6-19.5-4.5c-4.5-3-7.9-7.5-9.4-12.8
						c-1.9-6.8-2.8-13.8-2.7-20.9v-78.6h17.4v81.1c0,3.6,0.2,7.2,0.8,10.8c0.4,3.3,1.8,6.4,3.9,8.9c2.2,2.5,5.6,3.6,9.5,3.6
						L270.1,664.8 M219.6,556.6h-63.1v19.8h18.9v102.9H201V576.4h18.6L219.6,556.6z M160.3,572.6v-12.2h55.5v12.2h-18.6v102.9h-18
						V572.6L160.3,572.6z M128.1,556.6h-26.3L77.3,679.3h24.3l0.3-1.6l4.6-25.9H124l4.7,27.5h24L128.1,556.6z M81.9,675.5l23-115.1
						H125l23,115.1h-16.2l-4.7-27.5h-23.9l-4.8,27.5H81.9z M359,571.5h-9.8v1.9l0,0v37.8h8.6c4.4,0,8-0.6,10.9-2
						c2.9-1.4,5.1-3.9,6.3-6.9c1.3-3.5,1.9-7.3,1.7-11c0-6.2-1.1-11.1-3.7-14.6C370.3,573,365.4,571.5,359,571.5 M352.9,575.2h6
						c5.9,0,9.4,1.5,11,3.7c1.8,2.5,2.9,6.6,2.9,12.3c0.1,3.3-0.4,6.6-1.5,9.6c-0.8,2.1-2.4,3.9-4.4,4.9c-2.9,1.2-6,1.8-9.2,1.6
						h-4.9L352.9,575.2z M448.2,572H440v1.9l0,0v90.3h8.5c5.2,0,9.2-0.9,11.9-3.1c2.6-2.3,4.3-5.4,4.6-8.9c0.5-4.2,0.8-8.4,0.8-12.7
						V594c0.1-4-0.3-8.1-1.1-12c-0.6-3.1-2.4-5.9-5.1-7.6C456.9,572.7,453.2,572.1,448.2,572 M443.8,575.8h4.6
						c4.5,0,7.7,0.7,9.3,1.8c1.8,1.2,3.1,3.1,3.4,5.3c0.7,3.7,1.1,7.4,1,11.2v45.5c0,4.1-0.2,8.1-0.7,12.1c-0.2,2.5-1.4,4.9-3.3,6.5
						c-1.6,1.3-4.7,2.2-9.4,2.2h-4.8L443.8,575.8z M539.4,574.5l-1.9,11.5l-8.4,52.1h20.6L539.4,574.5z M537.5,586.6l1.9-0.3
						L537.5,586.6z M533.5,634.3l5.9-36.2l5.9,36.2H533.5z M115.1,574.5l-1.9,11.5l-8.4,52.1h20.6L115.1,574.5z M113.3,586.6
						l1.9-0.3L113.3,586.6z M109.3,634.3l5.9-36.2l5.9,36.2H109.3z"/>
				</g>
				<g id="Group_245" transform="translate(0 696.127)" class="st2">
					<path id="Path_146" class="st3" d="M32.7-0.5C22.9-0.5,14.9,2.2,9,7.6C3.1,13.1,0.2,21,0.2,30.7c0,6.8,1.3,12.6,4,17.4
						c2.7,4.8,6.3,9.1,10.5,12.6l15,13.2l0,0c3.4,2.8,6.5,6.1,9.1,9.6c2.1,2.9,3.2,6.8,3.2,11.7c0.1,2.4-0.5,4.9-1.9,6.9
						c-1,1.5-2.7,2.3-5.9,2.3c-2.3,0.1-4.6-0.7-6.2-2.3c-1.9-2.1-3.2-4.6-3.8-7.3c-1-3.9-1.5-7.8-1.6-11.8L22.4,81L0,85.4L0.1,87
						c0.3,8,1.7,14.9,4.3,20.5c2.4,5.5,6.5,10.1,11.6,13.1c5.2,3,11.5,4.4,18.8,4.4h0c5.8,0.1,11.5-1.2,16.5-4l-0.9-1.6l0.9,1.6
						c4.7-2.6,8.5-6.4,11.1-11.1c2.7-4.9,4.1-10.4,4-16c0-8.1-1.8-15.2-5.5-21c-3.5-5.6-7.9-10.6-12.9-14.9L33.3,45
						c-2.6-2.2-4.9-4.8-6.9-7.6c-1.6-2.7-2.3-5.8-2.2-8.9c-0.1-2.4,0.7-4.8,2.1-6.7c1.3-1.6,3.1-2.4,6-2.5c2.8,0,4.6,0.7,5.8,1.9
						c1.5,1.7,2.5,3.8,2.9,6c0.7,3.2,1.1,6.4,1.2,9.7l0.1,2.1l22.3-3.9l-0.1-1.7c-0.3-4.3-1-8.5-2.1-12.6c-1.1-3.9-2.8-7.6-5.2-10.9
						c-2.5-3.4-5.8-6-9.6-7.7C42.8,0.3,37.8-0.7,32.7-0.5L32.7-0.5 M32.1,71.1L17.1,58l0,0c-3.9-3.3-7.1-7.2-9.6-11.6
						C5.2,42.2,4,37.1,4,30.8c0-9.1,2.6-15.7,7.6-20.3c5.1-4.7,12-7.1,21.2-7.1h0c4.5-0.1,9,0.7,13.1,2.4c3.2,1.4,6,3.7,8.1,6.5
						c2.1,2.9,3.7,6.2,4.6,9.8c0.9,3.3,1.5,6.7,1.9,10.2l-14.7,2.6c-0.2-2.7-0.6-5.5-1.2-8.2c-0.5-2.9-1.9-5.6-3.9-7.8
						c-2-2.1-5-3.1-8.4-3.1h-0.2c-3.4-0.1-6.6,1.3-8.8,3.9c-2,2.6-3.1,5.8-3,9c-0.1,3.8,0.8,7.6,2.8,10.9c2.1,3.1,4.6,6,7.5,8.4
						l14.8,13.1l0,0c4.8,4,8.9,8.7,12.2,14c3.3,5.2,4.9,11.5,4.9,19c0.1,5-1.1,9.8-3.5,14.2c-2.3,4.1-5.6,7.4-9.7,9.6
						c-4.5,2.4-9.6,3.6-14.7,3.5c-6.9,0-12.5-1.3-17-3.9c-4.5-2.6-8-6.6-10.1-11.4c-2.4-5.5-3.7-11.5-3.9-17.5l14.9-2.9
						c0.2,3.5,0.8,7,1.6,10.4c0.8,3.4,2.4,6.5,4.7,9c2.4,2.3,5.5,3.5,8.8,3.4h0.2c3.8,0,7-1.3,8.9-4c1.8-2.7,2.7-5.9,2.5-9.1
						c0-5.5-1.2-10.1-3.9-13.9C39,77.7,35.7,74.2,32.1,71.1 M654.4,0.8h-23.8l-12.4,42.5L604.9,0.8h-24.2l24.8,75.7v46.9h24.5V76.6
						L654.4,0.8z M609.2,119.7V76L585.9,4.6h16.3l16.1,51.8l15.2-51.8h15.8L626.1,76v43.8L609.2,119.7z M552.4,0.8h-26.3
						l-24.5,122.7h24.3l0.3-1.6l4.6-25.9h17.5l4.7,27.5h24L552.4,0.8z M506.1,119.7l23-115.1h20.1l23,115.1h-16.2l-4.7-27.5h-23.9
						l-4.8,27.5H506.1z M448.2,0.8h-29.9v122.7h30.8c9.5,0,17.1-1.4,22.8-4.4c5.7-2.9,10-7.8,12.3-13.7c2.4-6,3.6-13.4,3.6-22.2
						V39.7c0-8.6-1.2-15.8-3.6-21.6c-2.4-5.8-6.8-10.5-12.5-13.2C465.9,2.1,458.1,0.8,448.2,0.8 M422.1,119.7V4.6h26.2
						c9.5,0,16.8,1.3,21.8,3.8c4.8,2.3,8.7,6.3,10.7,11.2c2.2,5.2,3.3,11.9,3.3,20.1v43.5c0,8.4-1.1,15.4-3.3,20.8
						c-1.9,5.1-5.7,9.3-10.6,11.8c-4.9,2.6-11.9,4-21,4L422.1,119.7L422.1,119.7z M357.8,0.8h-30.4v122.7h25.5V69h6.6l14.4,54.5
						h25.7l-16.8-59.4c3.1-1.4,5.8-3.5,8-6.2c2.4-3.1,4-6.7,4.8-10.5c1-4.4,1.4-8.9,1.4-13.3c0-8.2-1.5-14.8-4.6-19.8
						c-3.2-5-8-8.7-13.6-10.5C372.9,1.8,365.9,0.8,357.8,0.8 M331.2,119.7V4.6h26.6c7.9,0,14.4,0.9,19.7,2.8c4.8,1.5,8.9,4.7,11.6,9
						c2.6,4.2,4,10.1,4,17.8c0,4.2-0.4,8.4-1.3,12.5c-0.7,3.3-2.1,6.4-4.1,9c-2.1,2.6-4.8,4.5-7.9,5.6l-1.6,0.6l16.4,57.8h-17.8
						l-14.4-54.5h-13.3v54.5L331.2,119.7z M305.3,0.8h-24.8v84.8c0,3.4-0.2,6.8-0.8,10.2c-0.3,2.6-1.3,5-2.9,7
						c-1.2,1.4-3.3,2.3-6.9,2.3c-3.3,0-5.4-0.9-6.8-2.4c-1.7-2-2.7-4.4-3-6.9c-0.5-3.4-0.7-6.8-0.7-10.2V0.8h-24.9v82.3
						c-0.1,7.4,0.8,14.8,2.9,22c1.8,6.1,5.6,11.3,10.9,14.8c5.3,3.5,12.6,5.2,21.6,5.2c9.1,0,16.4-1.6,21.7-5.2l-1-1.6l1,1.6
						c5.2-3.5,9.1-8.8,10.8-14.8c2.1-7.1,3-14.6,2.9-22L305.3,0.8z M270.1,109c4.1,0,7.5-1.1,9.7-3.7c2.1-2.5,3.4-5.6,3.8-8.8
						c0.6-3.6,0.8-7.2,0.8-10.8V4.6h17.2v78.6c0.1,7.1-0.8,14.1-2.7,20.9c-1.5,5.2-4.8,9.8-9.3,12.8l0,0c-4.4,2.9-10.9,4.5-19.5,4.5
						H270c-8.6,0-15-1.6-19.5-4.5c-4.5-3-7.9-7.5-9.4-12.8c-1.9-6.8-2.8-13.8-2.7-20.9V4.6h17.4v81.1c0,3.6,0.2,7.2,0.8,10.8
						c0.4,3.3,1.8,6.4,3.9,8.9c2.2,2.5,5.6,3.6,9.5,3.6L270.1,109 M219.6,0.8h-63.1v19.8h18.9v102.9H201V20.6h18.6L219.6,0.8z
						 M160.3,16.8V4.6h55.5v12.2h-18.6v102.9h-18V16.8H160.3z M128.1,0.8h-26.3L77.3,123.5h24.3l0.3-1.6l4.6-25.9H124l4.7,27.5h24
						L128.1,0.8z M81.9,119.7l23-115.1H125l23,115.1h-16.2l-4.7-27.5h-23.9l-4.8,27.5L81.9,119.7z M359,15.7h-9.8v1.9l0,0v37.8h8.6
						c4.4,0,8-0.6,10.9-2c2.9-1.4,5.1-3.9,6.3-6.9c1.3-3.5,1.9-7.3,1.7-11.1c0-6.2-1.1-11.1-3.7-14.6
						C370.3,17.2,365.4,15.7,359,15.7 M352.9,19.4h6c5.9,0,9.4,1.5,11,3.7c1.8,2.5,2.9,6.6,2.9,12.3c0.1,3.3-0.4,6.6-1.5,9.7
						c-0.8,2.1-2.4,3.9-4.4,4.9c-2.9,1.2-6,1.8-9.2,1.6h-4.9L352.9,19.4z M448.2,16.2H440v1.9l0,0v90.3h8.5c5.2,0,9.2-0.9,11.9-3.1
						c2.6-2.3,4.3-5.4,4.6-8.9c0.5-4.2,0.8-8.4,0.8-12.7V38.2c0.1-4-0.3-8.1-1.1-12c-0.6-3.1-2.4-5.9-5.1-7.6
						C456.9,16.9,453.2,16.3,448.2,16.2 M443.8,20h4.6c4.5,0,7.7,0.7,9.3,1.8c1.8,1.2,3.1,3.1,3.4,5.3c0.7,3.7,1.1,7.4,1,11.2v45.5
						c0,4.1-0.2,8.1-0.7,12.1c-0.2,2.5-1.4,4.9-3.3,6.5c-1.6,1.3-4.7,2.2-9.4,2.2h-4.8L443.8,20z M539.4,18.7l-1.9,11.5l-8.4,52.1
						h20.6L539.4,18.7z M537.5,30.8l1.9-0.3L537.5,30.8z M533.5,78.5l5.9-36.2l5.9,36.2H533.5z M115.1,18.7l-1.9,11.5l-8.4,52.1
						h20.6L115.1,18.7z M113.3,30.8l1.9-0.3L113.3,30.8z M109.3,78.5l5.9-36.2l5.9,36.2H109.3z"/>
					<path id="Path_147" class="st3" d="M32.7,138.5c-9.8,0-17.8,2.7-23.7,8.1c-5.9,5.5-8.8,13.4-8.8,23.1c0,6.8,1.3,12.6,4,17.4
						c2.7,4.8,6.3,9.1,10.5,12.6l15,13.2l0,0c3.4,2.8,6.5,6.1,9.1,9.6c2.1,2.9,3.2,6.8,3.2,11.7c0.1,2.4-0.5,4.9-1.9,6.9
						c-1,1.5-2.7,2.3-5.9,2.3c-2.3,0.1-4.6-0.7-6.2-2.3c-1.9-2.1-3.2-4.6-3.8-7.3c-1-3.9-1.5-7.8-1.6-11.8l-0.1-2.2L0,224.4l0.1,1.6
						c0.3,8,1.7,14.9,4.3,20.5c2.4,5.5,6.5,10.1,11.6,13.1c5.2,3,11.5,4.4,18.8,4.4h0c5.8,0.1,11.5-1.2,16.5-4l-0.9-1.6l0.9,1.6
						c4.7-2.6,8.5-6.4,11.1-11.1c2.7-4.9,4.1-10.4,4-16c0-8.1-1.8-15.2-5.5-21c-3.5-5.6-7.9-10.6-12.9-14.9L33.3,184
						c-2.6-2.2-4.9-4.8-6.9-7.6c-1.6-2.7-2.3-5.8-2.2-8.9c-0.1-2.4,0.7-4.8,2.1-6.7c1.3-1.6,3.1-2.4,6-2.5c2.8,0,4.6,0.7,5.8,1.9
						c1.5,1.7,2.5,3.8,2.9,6c0.7,3.2,1.1,6.4,1.2,9.7l0.1,2.1l22.3-3.9l-0.1-1.7c-0.3-4.3-1-8.5-2.1-12.6c-1.1-3.9-2.8-7.6-5.2-11
						c-2.5-3.4-5.8-6-9.6-7.7C42.8,139.2,37.8,138.3,32.7,138.5L32.7,138.5 M32.1,210.1l-14.9-13.2l0,0c-3.9-3.3-7.1-7.2-9.6-11.6
						C5.2,181.2,4,176,4,169.7c0-9,2.6-15.7,7.6-20.3c5.1-4.7,12-7.1,21.2-7.1h0c4.5-0.1,9,0.7,13.1,2.4c3.2,1.4,6,3.7,8.1,6.5
						c2.1,2.9,3.7,6.2,4.6,9.7c0.9,3.3,1.5,6.7,1.9,10.2l-14.7,2.6c-0.2-2.7-0.6-5.5-1.2-8.2c-0.5-2.9-1.9-5.6-3.9-7.8
						c-2-2.1-5-3.1-8.4-3.1h-0.2c-3.4-0.1-6.6,1.3-8.8,3.9c-2,2.6-3.1,5.8-3,9c-0.1,3.8,0.8,7.6,2.8,10.9c2.1,3.1,4.6,6,7.5,8.4
						l14.8,13.1l0,0c4.8,4,8.9,8.7,12.2,14c3.3,5.2,4.9,11.5,4.9,19c0.1,5-1.1,9.8-3.5,14.2c-2.3,4.1-5.6,7.4-9.7,9.6
						c-4.5,2.4-9.6,3.6-14.7,3.5c-6.9,0-12.5-1.3-17-3.9c-4.5-2.6-8-6.6-10.1-11.4c-2.4-5.5-3.7-11.5-3.9-17.5l14.9-2.9
						c0.2,3.5,0.8,7,1.6,10.4c0.8,3.4,2.4,6.5,4.7,9c2.4,2.3,5.5,3.5,8.8,3.4h0.2c3.8,0,7-1.3,8.9-4c1.8-2.7,2.7-5.9,2.5-9.1
						c0-5.5-1.2-10.1-3.9-13.9C39,216.6,35.7,213.1,32.1,210.1 M654.4,139.8h-23.8l-12.4,42.5l-13.2-42.5h-24.2l24.8,75.7v46.9h24.5
						v-46.9L654.4,139.8z M618.2,195.3l15.2-51.8h15.8l-23.1,71.4v43.8h-16.9v-43.8l-23.4-71.4h16.3L618.2,195.3z M552.4,139.8
						h-26.3l-24.5,122.7h24.3l0.3-1.6l4.6-25.9h17.5l4.7,27.5h24L552.4,139.8z M506.1,258.7l23-115.1h20.1l23,115.1h-16.2l-4.7-27.5
						h-23.9l-4.8,27.5L506.1,258.7z M448.2,139.8h-29.9v122.7h30.8c9.5,0,17.1-1.4,22.8-4.4c5.7-2.9,10-7.8,12.3-13.7
						c2.4-6,3.6-13.4,3.6-22.2v-43.5c0-8.6-1.2-15.8-3.6-21.6c-2.4-5.8-6.8-10.5-12.5-13.2C465.9,141.1,458.1,139.8,448.2,139.8
						 M422,258.7V143.5h26.2h0.1c9.5,0,16.8,1.3,21.8,3.8c4.8,2.3,8.7,6.3,10.7,11.2c2.2,5.2,3.3,11.9,3.3,20.1v43.5
						c0,8.4-1.1,15.4-3.3,20.8c-1.9,5.1-5.7,9.3-10.6,11.8c-4.9,2.6-11.9,4-21,4L422,258.7L422,258.7z M357.8,139.8h-30.4v122.7
						h25.5V208h6.6l14.4,54.5h25.7l-16.8-59.4c3.1-1.4,5.8-3.5,8-6.2c2.4-3.1,4-6.7,4.8-10.5c1-4.4,1.4-8.9,1.4-13.3
						c0-8.1-1.5-14.8-4.6-19.8c-3.2-5-8-8.7-13.6-10.5C372.9,140.7,365.9,139.8,357.8,139.8 M331.2,258.7V143.5h26.6
						c7.9,0,14.4,0.9,19.7,2.8c4.8,1.5,8.9,4.7,11.6,9c2.6,4.2,4,10.1,4,17.8c0,4.2-0.4,8.4-1.3,12.5c-0.7,3.3-2.1,6.4-4.1,9
						c-2.1,2.6-4.8,4.5-7.9,5.6l-1.6,0.6l16.4,57.8h-17.8l-14.4-54.5h-13.3v54.5L331.2,258.7z M305.3,139.8h-24.8v84.8
						c0,3.4-0.2,6.8-0.8,10.2c-0.3,2.6-1.3,5-2.9,7c-1.2,1.4-3.3,2.3-6.9,2.3c-3.3,0-5.4-0.9-6.8-2.4c-1.7-2-2.7-4.4-3-6.9
						c-0.5-3.4-0.7-6.8-0.7-10.2v-84.8h-24.9v82.3c-0.1,7.4,0.8,14.8,2.9,22c1.8,6.1,5.6,11.3,10.9,14.8c5.3,3.5,12.6,5.2,21.6,5.2
						c9.1,0,16.4-1.6,21.7-5.2l-1-1.6l1,1.6c5.2-3.5,9.1-8.8,10.8-14.8c2.1-7.1,3-14.6,2.9-22L305.3,139.8z M270.1,247.9
						c4.1,0,7.5-1.1,9.7-3.7c2.1-2.5,3.4-5.6,3.8-8.8c0.6-3.6,0.8-7.2,0.8-10.8v-81.1h17.2v78.6c0.1,7.1-0.8,14.1-2.7,20.9
						c-1.5,5.2-4.8,9.8-9.3,12.8l0,0c-4.4,2.9-10.9,4.5-19.5,4.5H270c-8.6,0-15-1.6-19.5-4.5c-4.5-3-7.9-7.5-9.4-12.8
						c-1.9-6.8-2.8-13.8-2.7-20.9v-78.6h17.4v81.1c0,3.6,0.2,7.2,0.8,10.8c0.4,3.3,1.8,6.4,3.9,8.9c2.2,2.5,5.6,3.6,9.5,3.6
						L270.1,247.9 M219.6,139.8h-63.1v19.8h18.9v102.9H201V159.5h18.6L219.6,139.8z M160.3,155.8v-12.2h55.5v12.2h-18.6v102.9h-18
						V155.8H160.3z M128.1,139.8h-26.3L77.3,262.5h24.3l0.3-1.6l4.6-25.9H124l4.7,27.5h24L128.1,139.8z M81.9,258.7l23-115.1H125
						l23,115.1h-16.2l-4.7-27.5h-23.9l-4.8,27.5L81.9,258.7z M359,154.6h-9.8v1.9l0,0v37.8h8.6c4.4,0,8-0.6,10.9-2
						c2.9-1.4,5.1-3.9,6.3-6.9c1.3-3.5,1.9-7.3,1.7-11.1c0-6.2-1.1-11.1-3.7-14.6C370.3,156.1,365.4,154.6,359,154.6 M352.9,158.4h6
						c5.9,0,9.4,1.4,11,3.7c1.8,2.5,2.9,6.6,2.9,12.3c0.1,3.3-0.4,6.6-1.5,9.7c-0.8,2.1-2.4,3.9-4.4,4.9c-2.9,1.2-6,1.8-9.2,1.6
						h-4.9L352.9,158.4z M448.2,155.2H440v1.9l0,0v90.3h8.5c5.2,0,9.2-0.9,11.9-3.1c2.6-2.3,4.3-5.4,4.6-8.9
						c0.5-4.2,0.8-8.4,0.8-12.7v-45.5c0.1-4-0.3-8.1-1.1-12c-0.6-3.1-2.4-5.9-5.1-7.6C456.9,155.8,453.2,155.2,448.2,155.2
						 M443.8,159h4.6c4.5,0,7.7,0.7,9.3,1.8c1.8,1.2,3.1,3.1,3.4,5.3c0.7,3.7,1.1,7.4,1,11.2v45.5c0,4.1-0.2,8.1-0.7,12.1
						c-0.2,2.5-1.4,4.9-3.3,6.5c-1.6,1.3-4.7,2.2-9.4,2.2h-4.8L443.8,159z M539.4,157.6l-1.9,11.5l-8.4,52.1h20.6L539.4,157.6z
						 M537.5,169.7l1.9-0.3L537.5,169.7z M533.5,217.4l5.9-36.2l5.9,36.2H533.5z M115.1,157.6l-1.9,11.5l-8.4,52.1h20.6L115.1,157.6
						z M113.3,169.7l1.9-0.3L113.3,169.7z M109.3,217.4l5.9-36.2l5.9,36.2H109.3z"/>
					<path id="Path_148" class="st3" d="M32.7,277.4c-9.8,0-17.8,2.7-23.7,8.1c-5.9,5.5-8.8,13.4-8.8,23.1c0,6.8,1.3,12.6,4,17.4
						c2.7,4.8,6.3,9,10.5,12.6l15,13.2l0,0c3.4,2.8,6.5,6.1,9.1,9.6c2.1,2.9,3.2,6.8,3.2,11.7c0.1,2.4-0.5,4.9-1.9,6.9
						c-1,1.5-2.8,2.3-5.9,2.4c-2.3,0.1-4.6-0.7-6.2-2.3c-1.9-2.1-3.2-4.6-3.8-7.3c-1-3.9-1.5-7.8-1.6-11.8l-0.1-2.2L0,363.3l0.1,1.6
						c0.3,8,1.7,14.9,4.3,20.5c2.4,5.5,6.5,10.1,11.6,13.1c5.1,3,11.5,4.4,18.8,4.4h0c5.8,0.1,11.5-1.2,16.5-4l-0.9-1.6l0.9,1.6
						c4.7-2.6,8.5-6.4,11.1-11.1c2.7-4.9,4.1-10.4,4-16c0-8.1-1.8-15.2-5.5-21c-3.5-5.6-7.9-10.6-12.9-14.9l-14.8-13.1
						c-2.6-2.2-4.9-4.8-6.9-7.6c-1.6-2.7-2.3-5.8-2.2-8.9c-0.1-2.4,0.7-4.8,2.1-6.7c1.3-1.6,3.1-2.4,6-2.5c2.8,0,4.6,0.7,5.8,1.9
						c1.5,1.7,2.5,3.8,2.9,6c0.7,3.2,1.1,6.4,1.2,9.7l0.1,2.1l22.3-3.9l-0.1-1.7c-0.3-4.3-1-8.5-2.1-12.6c-1.1-3.9-2.8-7.6-5.2-10.9
						c-2.5-3.4-5.8-6-9.6-7.7C42.8,278.2,37.8,277.2,32.7,277.4L32.7,277.4 M32.1,349l-15-13.2l0,0c-3.9-3.3-7.1-7.2-9.6-11.6
						C5.2,320.1,4,315,4,308.6c0-9,2.6-15.7,7.6-20.3c5.1-4.7,12-7.1,21.2-7.1h0c4.5-0.1,9,0.7,13.1,2.4c3.2,1.4,6,3.7,8.1,6.5
						c2.1,2.9,3.7,6.2,4.6,9.7c0.9,3.3,1.5,6.7,1.9,10.2l-14.7,2.6c-0.2-2.7-0.6-5.5-1.1-8.2c-0.5-2.9-1.9-5.6-3.9-7.8
						c-2-2.1-5-3.1-8.4-3.1h-0.2c-3.4-0.1-6.6,1.3-8.8,3.9c-2,2.6-3.1,5.8-3,9c-0.1,3.8,0.8,7.6,2.8,10.9c2.1,3.1,4.6,6,7.5,8.4
						l14.8,13.1l0,0c4.8,4,8.9,8.7,12.2,14c3.3,5.2,4.9,11.5,4.9,19c0.1,5-1.1,9.9-3.5,14.2c-2.3,4.1-5.6,7.4-9.7,9.6l0,0
						c-4.5,2.4-9.6,3.6-14.7,3.5c-6.9,0-12.5-1.3-17-3.9c-4.5-2.6-8-6.6-10.1-11.4c-2.4-5.5-3.7-11.5-3.9-17.5l14.9-2.9
						c0.2,3.5,0.8,7,1.6,10.4c0.8,3.4,2.4,6.5,4.7,9c2.4,2.3,5.5,3.5,8.8,3.4h0.1c0,0,0.1,0,0.1,0c3.8,0,7-1.3,8.9-4
						c1.8-2.7,2.7-5.9,2.5-9.1c0-5.5-1.2-10.1-3.9-13.9C39,355.5,35.7,352.1,32.1,349 M654.4,278.7h-23.8l-12.4,42.5l-13.2-42.5
						h-24.2l24.8,75.7v46.9h24.5v-46.9L654.4,278.7z M609.2,397.6v-43.8l-23.4-71.4h16.3l16.1,51.8l15.2-51.8h15.8l-23.1,71.4v43.8
						L609.2,397.6z M552.4,278.7h-26.3l-24.5,122.7h24.3l0.3-1.6l4.6-25.9h17.5l4.7,27.4h24L552.4,278.7z M506.1,397.6l23-115.1
						h20.1l23,115.1h-16.2l-4.7-27.5h-23.9l-4.8,27.5H506.1z M448.2,278.7h-29.9v122.7h30.8c9.5,0,17.1-1.4,22.8-4.4
						c5.7-2.9,10-7.8,12.3-13.7c2.4-6,3.6-13.4,3.6-22.2v-43.5c0-8.6-1.2-15.8-3.6-21.6c-2.4-5.8-6.8-10.5-12.5-13.1
						C465.9,280,458.1,278.7,448.2,278.7 M422.1,397.6V282.5h26.2c9.5,0,16.8,1.3,21.8,3.8c4.8,2.3,8.7,6.3,10.7,11.2
						c2.2,5.2,3.3,11.9,3.3,20.1v43.5c0,8.4-1.1,15.4-3.3,20.8c-1.9,5.1-5.7,9.3-10.6,11.8c-4.9,2.6-11.9,4-21,4L422.1,397.6
						L422.1,397.6z M357.8,278.7h-30.4v122.7h25.5v-54.5h6.6l14.4,54.5h25.7L382.8,342c3.1-1.4,5.8-3.5,8-6.2
						c2.4-3.1,4-6.7,4.8-10.5c1-4.4,1.4-8.9,1.4-13.3c0-8.2-1.5-14.8-4.6-19.8c-3.2-5-8-8.7-13.6-10.5
						C372.9,279.7,365.9,278.7,357.8,278.7 M331.2,397.6V282.5h26.6h0c7.9,0,14.4,0.9,19.7,2.8c4.8,1.5,8.9,4.7,11.6,9
						c2.6,4.2,4,10.1,4,17.8c0,4.2-0.4,8.4-1.3,12.5c-0.7,3.3-2.1,6.4-4.1,9c-2.1,2.6-4.8,4.5-7.9,5.6l-1.6,0.6l16.4,57.8h-17.8
						l-14.4-54.5h-13.3v54.5L331.2,397.6z M305.4,278.7h-24.8v84.8c0,3.4-0.2,6.8-0.8,10.2c-0.3,2.6-1.3,5-2.9,7
						c-1.2,1.4-3.3,2.3-6.9,2.3c-3.3,0-5.4-0.9-6.7-2.4c-1.7-2-2.7-4.4-3-6.9c-0.5-3.4-0.7-6.8-0.7-10.2v-84.8h-24.9v82.3
						c-0.1,7.4,0.8,14.8,2.9,22c1.8,6.1,5.6,11.3,10.9,14.8c5.3,3.5,12.6,5.2,21.6,5.2c9.1,0,16.4-1.6,21.7-5.2l-1-1.6l1,1.6
						c5.2-3.5,9.1-8.8,10.8-14.8c2.1-7.1,3-14.6,2.9-22V278.7z M270.1,386.9c4.1,0,7.5-1.1,9.7-3.7c2.1-2.5,3.4-5.6,3.8-8.8
						c0.6-3.6,0.8-7.2,0.8-10.8v-81.1h17.2v78.6c0.1,7.1-0.8,14.1-2.7,20.9c-1.5,5.2-4.8,9.8-9.3,12.8c-4.4,2.9-10.9,4.5-19.5,4.5
						H270c-8.6,0-15-1.6-19.5-4.5c-4.5-3-7.9-7.5-9.4-12.8c-1.9-6.8-2.8-13.8-2.7-20.9v-78.6h17.4v81.1c0,3.6,0.2,7.2,0.8,10.8
						c0.4,3.3,1.8,6.4,3.9,8.9c2.2,2.5,5.6,3.6,9.5,3.6L270.1,386.9 M219.6,278.7h-63.1v19.8h18.9v102.9H201V298.5h18.6L219.6,278.7
						z M160.3,294.7v-12.2h55.5v12.2h-18.6v102.9h-18V294.7H160.3z M128.1,278.7h-26.3L77.3,401.4h24.3l0.3-1.6l4.6-25.9H124
						l4.7,27.4h24L128.1,278.7z M81.9,397.6l23-115.1H125l23,115.1h-16.2l-4.7-27.5h-23.9l-4.8,27.5H81.9z M359,293.6h-9.8v1.9l0,0
						v37.8h8.6c4.4,0,8-0.6,10.9-2c2.9-1.4,5.1-3.9,6.3-6.9c1.3-3.5,1.9-7.3,1.8-11.1c0-6.2-1.1-11.1-3.7-14.6
						C370.3,295.1,365.4,293.6,359,293.6 M352.9,297.3h6c5.9,0,9.4,1.5,11,3.7c1.8,2.5,2.9,6.6,2.9,12.3c0.1,3.3-0.4,6.6-1.5,9.6
						c-0.8,2.1-2.4,3.9-4.4,4.9c-2.9,1.2-6,1.8-9.2,1.6h-4.9L352.9,297.3z M448.2,294.1H440v1.9l0,0v90.3h8.5
						c5.2,0,9.2-0.9,11.9-3.1c2.6-2.3,4.3-5.4,4.6-8.9c0.5-4.2,0.8-8.4,0.8-12.7v-45.5c0.1-4-0.3-8.1-1.1-12
						c-0.6-3.1-2.4-5.9-5.1-7.6C456.9,294.8,453.2,294.2,448.2,294.1 M443.8,297.9h4.6c4.5,0,7.7,0.7,9.3,1.8
						c1.8,1.2,3.1,3.1,3.4,5.3c0.7,3.7,1.1,7.4,1,11.2v45.5c0,4.1-0.2,8.1-0.7,12.1c-0.2,2.5-1.4,4.9-3.3,6.5
						c-1.6,1.3-4.7,2.2-9.4,2.2h-4.8L443.8,297.9z M539.4,296.5l-1.9,11.5l-8.4,52.1h20.6L539.4,296.5z M537.5,308.7l1.9-0.3
						L537.5,308.7z M533.5,356.4l5.9-36.2l5.9,36.2H533.5z M115.1,296.5l-1.9,11.5l-8.4,52.1h20.6L115.1,296.5z M113.3,308.7
						l1.9-0.3L113.3,308.7z M109.3,356.4l5.9-36.2l5.9,36.2H109.3z"/>
					<path id="Path_149" class="st3" d="M32.7,416.4c-9.8,0-17.8,2.7-23.7,8.1c-5.9,5.5-8.8,13.4-8.8,23.1c0,6.8,1.3,12.6,4,17.4
						c2.7,4.8,6.3,9.1,10.5,12.6l15,13.2l0,0c3.4,2.8,6.5,6.1,9.1,9.6c2.1,2.9,3.2,6.8,3.2,11.7c0.1,2.4-0.5,4.9-1.9,6.9
						c-1,1.5-2.7,2.3-5.9,2.3c-2.3,0.1-4.6-0.7-6.2-2.3c-1.9-2.1-3.2-4.6-3.8-7.3c-1-3.9-1.5-7.8-1.6-11.8l-0.1-2.2L0,502.3l0.1,1.6
						c0.3,8,1.7,14.9,4.3,20.5c2.4,5.5,6.5,10.1,11.6,13.1c5.2,3,11.5,4.4,18.8,4.4h0c5.8,0.1,11.5-1.2,16.5-4l-0.9-1.6l0.9,1.6
						c4.7-2.6,8.5-6.4,11.1-11.1c2.7-4.9,4.1-10.4,4-16c0-8.1-1.8-15.2-5.5-21c-3.5-5.6-7.9-10.6-12.9-14.9l-14.8-13.1
						c-2.6-2.2-4.9-4.8-6.9-7.6c-1.6-2.7-2.3-5.8-2.2-8.9c-0.1-2.4,0.7-4.8,2.1-6.7c1.3-1.6,3.1-2.4,6-2.5c2.8,0,4.6,0.7,5.8,1.9
						c1.5,1.7,2.5,3.8,2.9,6c0.7,3.2,1.1,6.4,1.2,9.7l0.1,2.1l22.3-3.9l-0.1-1.7c-0.3-4.3-1-8.5-2.1-12.6c-1.1-3.9-2.8-7.6-5.2-11
						c-2.5-3.4-5.8-6-9.6-7.7C42.8,417.1,37.8,416.2,32.7,416.4L32.7,416.4 M32.1,488l-14.9-13.2l0,0c-3.9-3.3-7.1-7.2-9.6-11.6
						c-2.3-4.1-3.5-9.3-3.5-15.6c0-9.1,2.6-15.7,7.6-20.3c5.1-4.7,12-7.1,21.2-7.1h0c4.5-0.1,9,0.7,13.1,2.4c3.2,1.4,6,3.7,8.1,6.5
						c2.1,2.9,3.7,6.2,4.6,9.7c0.9,3.3,1.5,6.7,1.9,10.2l-14.7,2.6c-0.2-2.7-0.6-5.5-1.2-8.2c-0.5-2.9-1.9-5.6-3.9-7.8
						c-2-2.1-5-3.1-8.4-3.1c0,0,0,0-0.1,0c0,0-0.1,0-0.1,0c-3.4-0.1-6.6,1.3-8.8,3.9c-2,2.6-3.1,5.8-3,9c-0.1,3.8,0.8,7.6,2.8,10.9
						c2.1,3.1,4.6,6,7.5,8.4l14.8,13.1l0,0c4.8,4,8.9,8.7,12.2,14c3.3,5.2,4.9,11.5,4.9,19c0.1,5-1.1,9.8-3.5,14.2
						c-2.3,4.1-5.6,7.4-9.7,9.6c-4.5,2.4-9.6,3.6-14.7,3.5c-6.9,0-12.5-1.3-17-3.9c-4.5-2.6-8-6.6-10.1-11.4
						c-2.4-5.5-3.7-11.5-3.9-17.5l14.9-2.9c0.2,3.5,0.8,7,1.6,10.4c0.8,3.4,2.4,6.5,4.7,9c2.4,2.3,5.5,3.5,8.8,3.4h0.2
						c3.8,0,7-1.3,8.9-4c1.8-2.7,2.7-5.9,2.5-9.1c0-5.5-1.2-10.1-3.9-13.9C39,494.5,35.7,491,32.1,488 M654.4,417.7h-23.8
						l-12.4,42.5l-13.2-42.5h-24.2l24.8,75.7v46.9h24.5v-47L654.4,417.7z M609.2,536.6v-43.8l-23.4-71.4h16.3l16.1,51.8l15.2-51.8
						h15.8l-23.1,71.4v43.8L609.2,536.6z M552.4,417.7h-26.3l-24.5,122.7h24.3l0.3-1.6l4.6-25.9h17.5l4.7,27.5h24L552.4,417.7z
						 M506.1,536.6l23-115.1h20.1l23,115.1h-16.2l-4.7-27.5h-23.9l-4.8,27.5H506.1z M448.2,417.7h-29.9v122.7h30.8
						c9.5,0,17.1-1.4,22.8-4.4c5.7-2.9,10-7.8,12.3-13.7c2.4-6,3.6-13.4,3.6-22.2v-43.5c0-8.6-1.2-15.8-3.6-21.6
						c-2.4-5.8-6.8-10.5-12.5-13.2C465.9,419,458.1,417.7,448.2,417.7 M422,536.6V421.5h26.2c9.5,0,16.8,1.3,21.8,3.8
						c4.8,2.3,8.7,6.3,10.7,11.2c2.2,5.2,3.3,11.9,3.3,20.1V500c0,8.4-1.1,15.4-3.3,20.8c-1.9,5.1-5.7,9.3-10.6,11.8
						c-4.9,2.6-11.9,4-21,4L422,536.6L422,536.6z M357.8,417.7h-30.4v122.7h25.5v-54.5h6.6l14.4,54.5h25.7L382.8,481
						c3.1-1.4,5.8-3.5,8-6.2c2.4-3.1,4-6.7,4.8-10.5c1-4.4,1.4-8.9,1.4-13.3c0-8.1-1.5-14.8-4.6-19.8c-3.2-5-8-8.7-13.6-10.5
						C372.9,418.7,365.9,417.7,357.8,417.7 M331.2,536.6V421.5h26.6c7.9,0,14.4,0.9,19.7,2.8c4.8,1.5,8.9,4.7,11.6,9
						c2.6,4.2,4,10.1,4,17.8c0,4.2-0.4,8.4-1.3,12.5c-0.7,3.3-2.1,6.4-4.1,9c-2.1,2.6-4.8,4.5-7.9,5.6l-1.6,0.6l16.4,57.8h-17.8
						l-14.4-54.5h-13.3v54.5L331.2,536.6z M305.3,417.7h-24.8v84.8c0,3.4-0.2,6.8-0.8,10.2c-0.3,2.6-1.3,5-2.9,7
						c-1.2,1.4-3.3,2.3-6.9,2.3c-3.3,0-5.4-0.9-6.8-2.4c-1.7-2-2.7-4.4-3-6.9c-0.5-3.4-0.7-6.8-0.7-10.2v-84.8h-24.9V500
						c-0.1,7.4,0.8,14.8,2.9,22c1.8,6.1,5.6,11.3,10.9,14.8c5.3,3.5,12.6,5.2,21.6,5.2c9.1,0,16.4-1.6,21.7-5.2l-1-1.6l1,1.6
						c5.2-3.5,9.1-8.8,10.8-14.8c2.1-7.1,3-14.6,2.9-22L305.3,417.7z M270.1,525.8c4.1,0,7.5-1.1,9.7-3.7c2.1-2.5,3.4-5.6,3.8-8.8
						c0.6-3.6,0.8-7.2,0.8-10.8v-81.1h17.2V500c0.1,7.1-0.8,14.1-2.7,20.9c-1.5,5.2-4.8,9.8-9.3,12.8l0,0
						c-4.4,2.9-10.9,4.5-19.5,4.5H270c-8.6,0-15-1.6-19.5-4.5c-4.5-3-7.9-7.5-9.4-12.8c-1.9-6.8-2.8-13.8-2.7-20.9v-78.6h17.4v81.1
						c0,3.6,0.2,7.2,0.8,10.8c0.4,3.3,1.8,6.4,3.9,8.9c2.2,2.5,5.6,3.6,9.5,3.6L270.1,525.8 M219.6,417.7h-63.1v19.8h18.9v102.9H201
						V437.5h18.6L219.6,417.7z M160.3,433.7v-12.2h55.5v12.2h-18.6v102.9h-18V433.7H160.3z M128.1,417.7h-26.3L77.3,540.4h24.3
						l0.3-1.6l4.6-25.9H124l4.7,27.5h24L128.1,417.7z M81.9,536.6l23-115.1H125l23,115.1h-16.2l-4.7-27.5h-23.9l-4.8,27.5
						L81.9,536.6z M359,432.5h-9.8v1.9l0,0v37.8h8.6c4.4,0,8-0.6,10.9-2c2.9-1.4,5.1-3.9,6.3-6.9c1.3-3.5,1.9-7.3,1.7-11.1
						c0-6.2-1.1-11.1-3.7-14.6C370.3,434.1,365.4,432.5,359,432.5 M352.9,436.3h6c5.9,0,9.4,1.4,11,3.7c1.8,2.5,2.9,6.6,2.9,12.3
						c0.1,3.3-0.4,6.6-1.5,9.7c-0.8,2.1-2.4,3.9-4.4,4.9c-2.9,1.2-6,1.8-9.2,1.6h-4.9L352.9,436.3z M448.2,433.1H440v1.9l0,0v90.3
						h8.5c5.2,0,9.2-0.9,11.9-3.1c2.6-2.3,4.3-5.4,4.6-8.9c0.5-4.2,0.8-8.4,0.8-12.7v-45.5c0.1-4-0.3-8.1-1.1-12
						c-0.6-3.1-2.4-5.9-5.1-7.6C456.9,433.8,453.2,433.1,448.2,433.1 M443.8,436.9h4.6c4.5,0,7.7,0.7,9.3,1.8
						c1.8,1.2,3.1,3.1,3.4,5.3c0.7,3.7,1.1,7.4,1,11.2v45.5c0,4.1-0.2,8.1-0.7,12.1c-0.2,2.5-1.4,4.9-3.3,6.5
						c-1.6,1.3-4.7,2.2-9.4,2.2h-4.8L443.8,436.9z M539.4,435.5l-1.9,11.5l-8.4,52.1h20.6L539.4,435.5z M537.5,447.6l1.9-0.3
						L537.5,447.6z M533.5,495.3l5.9-36.2l5.9,36.2H533.5z M115.1,435.5l-1.9,11.5l-8.4,52.1h20.6L115.1,435.5z M113.3,447.6
						l1.9-0.3L113.3,447.6z M109.3,495.3l5.9-36.2l5.9,36.2H109.3z"/>
					<path id="Path_150" class="st3" d="M32.7,555.3c-9.8,0-17.8,2.7-23.7,8.1c-5.9,5.5-8.8,13.4-8.8,23.1c0,6.8,1.3,12.6,4,17.4
						c2.7,4.8,6.3,9.1,10.5,12.6l15,13.2l0,0c3.4,2.8,6.5,6.1,9.1,9.6c2.1,2.9,3.2,6.8,3.2,11.7c0.1,2.4-0.5,4.9-1.9,6.9
						c-1,1.5-2.7,2.3-5.9,2.3c-2.3,0.1-4.6-0.7-6.2-2.3c-1.9-2.1-3.2-4.6-3.8-7.3c-1-3.9-1.5-7.8-1.6-11.8l-0.1-2.2L0,641.2l0.1,1.6
						c0.3,8,1.7,14.9,4.3,20.5c2.4,5.5,6.5,10.1,11.6,13.1c5.2,3,11.5,4.4,18.8,4.4h0c5.8,0.1,11.5-1.2,16.5-4l-0.9-1.6l0.9,1.6
						c4.7-2.6,8.5-6.4,11.1-11.1c2.7-4.9,4.1-10.4,4-16.1c0-8.1-1.8-15.2-5.5-21c-3.5-5.6-7.9-10.6-12.9-14.9l-14.8-13.1
						c-2.6-2.2-4.9-4.8-6.9-7.6c-1.6-2.7-2.3-5.8-2.2-8.9c-0.1-2.4,0.7-4.8,2.1-6.7c1.3-1.6,3.1-2.4,6-2.5c2.8,0,4.6,0.7,5.8,1.9
						c1.5,1.7,2.5,3.8,2.9,6c0.7,3.2,1.1,6.4,1.2,9.7l0.1,2.1l22.3-3.9l-0.1-1.7c-0.3-4.3-1-8.5-2.1-12.6c-1.1-3.9-2.8-7.6-5.2-10.9
						c-2.5-3.4-5.8-6-9.6-7.7C42.8,556.1,37.8,555.2,32.7,555.3L32.7,555.3 M32.1,627l-14.9-13.2l0,0c-3.9-3.3-7.1-7.2-9.6-11.6
						c-2.3-4.1-3.5-9.3-3.5-15.6c0-9.1,2.6-15.7,7.6-20.3c5.1-4.7,12-7.1,21.2-7.1h0c4.5-0.1,9,0.7,13.1,2.4c3.2,1.4,6,3.7,8.1,6.5
						c2.1,2.9,3.7,6.2,4.6,9.7c0.9,3.3,1.5,6.7,1.9,10.2l-14.7,2.6c-0.2-2.7-0.6-5.5-1.2-8.2c-0.5-2.9-1.9-5.6-3.9-7.8
						c-2-2.1-5-3.1-8.4-3.1h-0.2c-3.4-0.1-6.6,1.3-8.8,3.9c-2,2.6-3.1,5.8-3,9c-0.1,3.8,0.8,7.6,2.8,10.9c2.1,3.1,4.6,6,7.5,8.4
						l14.8,13.1l0,0c4.8,4,8.9,8.7,12.2,14c3.3,5.2,4.9,11.5,4.9,19c0.1,5-1.1,9.8-3.5,14.2c-2.3,4.1-5.6,7.4-9.7,9.6l0,0
						c-4.5,2.4-9.6,3.6-14.7,3.5c-6.9,0-12.5-1.3-17-3.9c-4.5-2.6-8-6.6-10.1-11.4c-2.4-5.5-3.7-11.5-3.9-17.5l14.9-2.9
						c0.2,3.5,0.8,7,1.6,10.4c0.8,3.4,2.4,6.5,4.7,9c2.4,2.3,5.5,3.5,8.8,3.4h0.2c3.8,0,7-1.2,8.9-4c1.8-2.7,2.7-5.9,2.5-9.1
						c0-5.5-1.2-10.1-3.9-13.9C39,633.5,35.7,630,32.1,627L32.1,627z M654.4,556.6h-23.8l-12.4,42.5l-13.2-42.5h-24.2l24.8,75.7
						v46.9h24.5v-46.9L654.4,556.6z M618.2,612.2l15.2-51.8h15.8l-23.1,71.4v43.8h-16.9v-43.8l-23.4-71.4h16.3L618.2,612.2z
						 M552.4,556.6h-26.3l-24.5,122.7h24.3l0.3-1.6l4.6-25.9h17.5l4.7,27.5h24L552.4,556.6z M506.1,675.5l23-115.1h20.1l23,115.1
						h-16.2l-4.7-27.5h-23.9l-4.8,27.5H506.1z M448.2,556.6h-29.9v122.7h30.8c9.5,0,17.1-1.4,22.8-4.4c5.7-2.9,10-7.8,12.3-13.7
						c2.4-6,3.6-13.4,3.6-22.2v-43.5c0-8.6-1.2-15.8-3.6-21.6c-2.4-5.8-6.8-10.5-12.5-13.1C465.9,558,458.1,556.6,448.2,556.6
						 M422,675.5V560.4h26.2c9.5,0,16.8,1.3,21.8,3.8c4.8,2.3,8.7,6.3,10.7,11.2c2.2,5.2,3.3,11.9,3.3,20.1V639
						c0,8.4-1.1,15.4-3.3,20.8c-1.9,5.1-5.7,9.3-10.6,11.8c-4.9,2.6-11.9,4-21,4L422,675.5L422,675.5z M357.8,556.6h-30.4v122.7
						h25.5v-54.5h6.6l14.4,54.5h25.7l-16.8-59.4c3.1-1.4,5.8-3.5,8-6.2c2.4-3.1,4-6.7,4.8-10.5c1-4.4,1.4-8.9,1.4-13.3
						c0-8.1-1.5-14.8-4.6-19.8c-3.2-5-8-8.7-13.6-10.5C372.9,557.6,365.9,556.6,357.8,556.6 M331.2,675.5V560.4h26.6
						c7.9,0,14.4,0.9,19.7,2.8c4.8,1.5,8.9,4.7,11.6,9c2.6,4.2,4,10.1,4,17.8c0,4.2-0.4,8.4-1.3,12.5c-0.7,3.3-2.1,6.4-4.1,9
						c-2.1,2.6-4.8,4.5-7.9,5.6l-1.6,0.6l16.4,57.8h-17.8l-14.4-54.5h-13.3v54.5L331.2,675.5z M305.3,556.6h-24.8v84.8
						c0,3.4-0.2,6.8-0.8,10.2c-0.3,2.6-1.3,5-2.9,7c-1.2,1.4-3.3,2.3-6.9,2.3c-3.3,0-5.4-0.9-6.8-2.4c-1.7-2-2.7-4.4-3-6.9
						c-0.5-3.4-0.7-6.8-0.7-10.2v-84.8h-24.9V639c-0.1,7.4,0.8,14.8,2.9,22c1.8,6.1,5.6,11.3,10.9,14.8c5.3,3.5,12.6,5.2,21.6,5.2
						c9.1,0,16.4-1.6,21.7-5.2l-1-1.6l1,1.6c5.2-3.5,9.1-8.8,10.8-14.8c2.1-7.1,3-14.6,2.9-22L305.3,556.6z M270.1,664.8
						c4.1,0,7.5-1.1,9.7-3.7c2.1-2.5,3.4-5.6,3.8-8.8c0.6-3.6,0.8-7.2,0.8-10.8v-81.1h17.2V639c0.1,7.1-0.8,14.1-2.7,20.9
						c-1.5,5.2-4.8,9.8-9.3,12.8c-4.4,2.9-10.9,4.5-19.6,4.5H270c-8.6,0-15-1.6-19.5-4.5c-4.5-3-7.9-7.5-9.4-12.8
						c-1.9-6.8-2.8-13.8-2.7-20.9v-78.6h17.4v81.1c0,3.6,0.2,7.2,0.8,10.8c0.4,3.3,1.8,6.4,3.9,8.9c2.2,2.5,5.6,3.6,9.5,3.6
						L270.1,664.8 M219.6,556.6h-63.1v19.8h18.9v102.9H201V576.4h18.6L219.6,556.6z M160.3,572.6v-12.2h55.5v12.2h-18.6v102.9h-18
						V572.6H160.3z M128.1,556.6h-26.3L77.3,679.3h24.3l0.3-1.6l4.6-25.9H124l4.7,27.5h24L128.1,556.6z M81.9,675.5l23-115.1H125
						l23,115.1h-16.2l-4.7-27.5h-23.9l-4.8,27.5L81.9,675.5z M359,571.5h-9.8v1.9l0,0v37.8h8.6c4.4,0,8-0.6,10.9-2
						c2.9-1.4,5.1-3.9,6.3-6.9c1.3-3.5,1.9-7.3,1.7-11.1c0-6.2-1.1-11.1-3.7-14.6C370.3,573,365.4,571.5,359,571.5 M352.9,575.2h6
						c5.9,0,9.4,1.4,11,3.7c1.8,2.5,2.9,6.6,2.9,12.3c0.1,3.3-0.4,6.6-1.5,9.6c-0.8,2.1-2.4,3.9-4.4,4.9c-2.9,1.2-6,1.8-9.2,1.6
						h-4.9L352.9,575.2z M448.2,572H440v1.9l0,0v90.3h8.5c5.2,0,9.2-0.9,11.9-3.1c2.6-2.3,4.3-5.4,4.6-8.9c0.5-4.2,0.8-8.4,0.8-12.7
						V594c0.1-4-0.3-8.1-1.1-12c-0.6-3.1-2.4-5.9-5.1-7.6C456.9,572.7,453.2,572.1,448.2,572 M443.8,575.8h4.6
						c4.5,0,7.7,0.7,9.3,1.8c1.8,1.2,3.1,3.1,3.4,5.3c0.7,3.7,1.1,7.4,1,11.2v45.5c0,4.1-0.2,8.1-0.7,12.1c-0.2,2.5-1.4,4.9-3.3,6.5
						c-1.6,1.3-4.7,2.2-9.4,2.2h-4.8L443.8,575.8z M539.4,574.5l-1.9,11.5l-8.4,52.1h20.6L539.4,574.5z M537.5,586.6l1.9-0.3
						L537.5,586.6z M533.5,634.3l5.9-36.2l5.9,36.2H533.5z M115.1,574.5l-1.9,11.5l-8.4,52.1h20.6L115.1,574.5z M113.3,586.6
						l1.9-0.3L113.3,586.6z M109.3,634.3l5.9-36.2l5.9,36.2H109.3z"/>
				</g>
				<g id="Group_246" transform="translate(0.001 1393.201)" class="st2">
					<path id="Path_151" class="st3" d="M32.7-0.5C22.9-0.5,14.9,2.2,9,7.6C3.1,13.1,0.2,21,0.2,30.7c0,6.8,1.3,12.6,4,17.4
						c2.7,4.8,6.3,9,10.5,12.6l15,13.2l0,0c3.4,2.8,6.5,6.1,9.1,9.6c2.1,2.9,3.2,6.8,3.2,11.7c0.1,2.4-0.5,4.9-1.9,6.9
						c-1,1.5-2.7,2.3-5.9,2.3c-2.3,0.1-4.6-0.7-6.2-2.3c-1.9-2.1-3.2-4.6-3.8-7.3c-1-3.9-1.5-7.8-1.6-11.8L22.4,81L0,85.4L0.1,87
						c0.3,8,1.7,14.9,4.3,20.5c2.4,5.5,6.5,10.1,11.6,13.1c5.2,3,11.5,4.4,18.8,4.4h0c5.8,0.1,11.5-1.2,16.5-4l-0.9-1.6l0.9,1.6
						c4.7-2.6,8.5-6.4,11.1-11.1c2.7-4.9,4.1-10.4,4-16c0-8.1-1.8-15.2-5.5-21c-3.5-5.6-7.9-10.6-12.9-14.9L33.3,45
						c-2.6-2.2-4.9-4.8-6.9-7.6c-1.6-2.7-2.3-5.8-2.2-8.9c-0.1-2.4,0.7-4.8,2.1-6.7c1.3-1.6,3.1-2.4,6-2.5c2.8,0,4.6,0.7,5.8,1.9
						c1.5,1.7,2.5,3.8,2.9,6c0.7,3.2,1.1,6.4,1.2,9.7l0.1,2.1l22.3-3.9l-0.1-1.7c-0.3-4.3-1-8.5-2.1-12.6c-1.1-3.9-2.8-7.6-5.2-11
						c-2.5-3.4-5.8-6-9.6-7.7C42.8,0.3,37.8-0.7,32.7-0.5L32.7-0.5 M32.1,71.1L17.1,57.9l0,0c-3.9-3.3-7.1-7.2-9.6-11.6
						C5.2,42.2,4,37.1,4,30.7c0-9,2.6-15.7,7.6-20.3c5.1-4.7,12-7.1,21.2-7.1h0c4.5-0.1,9,0.7,13.1,2.4c3.2,1.4,6,3.7,8.1,6.5
						c2.1,2.9,3.7,6.2,4.6,9.8c0.9,3.3,1.5,6.7,1.9,10.2l-14.7,2.6c-0.2-2.7-0.6-5.5-1.2-8.2c-0.5-2.9-1.9-5.6-3.9-7.8
						c-2-2.1-5-3.1-8.4-3.1h-0.1c0,0-0.1,0-0.1,0c-3.4-0.1-6.6,1.3-8.8,3.9c-2,2.6-3.1,5.8-3,9c-0.1,3.8,0.8,7.6,2.8,10.9
						c2.1,3.1,4.6,6,7.5,8.4l14.8,13.1l0,0c4.8,4,8.9,8.7,12.2,14c3.3,5.2,4.9,11.5,4.9,19c0.1,5-1.1,9.8-3.5,14.2
						c-2.3,4.1-5.6,7.4-9.7,9.6c-4.5,2.4-9.6,3.6-14.7,3.5c-6.9,0-12.5-1.3-17-3.9c-4.5-2.6-8-6.6-10.1-11.4
						c-2.4-5.5-3.7-11.5-3.9-17.5l14.9-2.9c0.2,3.5,0.8,7,1.6,10.4c0.8,3.4,2.4,6.5,4.7,9c2.4,2.3,5.5,3.5,8.8,3.4h0.2
						c3.8,0,7-1.3,8.9-4c1.8-2.7,2.7-5.9,2.5-9.1c0-5.5-1.2-10.1-3.9-13.9C39,77.6,35.7,74.2,32.1,71.1 M654.4,0.8h-23.8l-12.4,42.5
						L604.9,0.8h-24.2l24.8,75.7v46.9h24.5V76.6L654.4,0.8z M609.2,119.7V75.9L585.9,4.6h16.3l16.1,51.8l15.2-51.8h15.8l-23.1,71.4
						v43.8L609.2,119.7z M552.4,0.8h-26.3l-24.5,122.7h24.3l0.3-1.6l4.6-25.9h17.5l4.7,27.5h24L552.4,0.8z M506.1,119.7l23-115.1
						h20.1l23,115.1h-16.2l-4.7-27.5h-23.9l-4.8,27.5L506.1,119.7z M448.2,0.8h-29.9v122.7h30.8c9.5,0,17.1-1.4,22.8-4.4
						c5.7-2.9,10-7.8,12.3-13.7c2.4-6,3.6-13.4,3.6-22.2V39.7c0-8.6-1.2-15.8-3.6-21.6c-2.4-5.8-6.8-10.5-12.5-13.2
						C465.9,2.1,458.1,0.8,448.2,0.8 M422,119.7V4.6h26.2c9.5,0,16.8,1.3,21.8,3.8c4.8,2.3,8.7,6.3,10.7,11.2
						c2.2,5.2,3.3,11.9,3.3,20.1v43.5c0,8.4-1.1,15.4-3.3,20.8c-1.9,5.1-5.7,9.3-10.6,11.8c-4.9,2.6-11.9,4-21,4L422,119.7
						L422,119.7z M357.8,0.8h-30.4v122.7h25.5V69h6.6l14.4,54.5h25.7l-16.8-59.4c3.1-1.4,5.8-3.5,8-6.2c2.4-3.1,4-6.7,4.8-10.5
						c1-4.4,1.4-8.9,1.4-13.3c0-8.1-1.5-14.8-4.6-19.8c-3.2-5-8-8.7-13.6-10.5C372.9,1.8,365.9,0.8,357.8,0.8 M331.2,119.7V4.6h26.6
						c7.9,0,14.4,0.9,19.7,2.8c4.8,1.5,8.9,4.7,11.6,9c2.6,4.2,4,10.1,4,17.8c0,4.2-0.4,8.4-1.3,12.5c-0.7,3.3-2.1,6.4-4.1,9
						c-2.1,2.6-4.8,4.5-7.9,5.6l-1.6,0.6l16.4,57.8h-17.8l-14.4-54.5h-13.3v54.5L331.2,119.7z M305.3,0.8h-24.8v84.8
						c0,3.4-0.2,6.8-0.8,10.2c-0.3,2.6-1.3,5-2.9,7c-1.2,1.4-3.3,2.3-6.9,2.3c-3.3,0-5.4-0.9-6.8-2.4c-1.7-2-2.7-4.4-3-6.9
						c-0.5-3.4-0.7-6.8-0.7-10.2V0.8h-24.9v82.3c-0.1,7.4,0.8,14.8,2.9,22c1.8,6.1,5.6,11.3,10.9,14.8c5.3,3.5,12.6,5.2,21.6,5.2
						c9.1,0,16.4-1.6,21.7-5.2l-1-1.6l1,1.6c5.2-3.5,9.1-8.8,10.8-14.8c2.1-7.1,3-14.6,2.9-22L305.3,0.8z M270.1,109
						c4.1,0,7.5-1.1,9.7-3.7c2.1-2.5,3.4-5.6,3.8-8.8c0.6-3.6,0.8-7.2,0.8-10.8V4.6h17.2v78.6c0.1,7.1-0.8,14.1-2.7,20.9
						c-1.5,5.2-4.8,9.8-9.3,12.8l0,0c-4.4,2.9-10.9,4.5-19.5,4.5H270c-8.6,0-15-1.6-19.5-4.5c-4.5-3-7.9-7.5-9.4-12.8
						c-1.9-6.8-2.8-13.8-2.7-20.9V4.6h17.4v81.1c0,3.6,0.2,7.2,0.8,10.8c0.4,3.3,1.8,6.4,3.9,8.9c2.2,2.5,5.6,3.6,9.5,3.6L270.1,109
						L270.1,109 M219.6,0.8h-63.1v19.8h18.9v102.9H201V20.6h18.6L219.6,0.8z M160.3,16.8V4.6h55.5v12.2h-18.6v102.9h-18V16.8
						L160.3,16.8z M128.1,0.8h-26.3L77.3,123.5h24.3l0.3-1.6l4.6-25.9h17.5l4.7,27.5h24L128.1,0.8z M81.9,119.7l23-115.1H125
						l23,115.1h-16.2l-4.7-27.5h-23.9l-4.8,27.5L81.9,119.7z M359,15.6h-9.8v1.9l0,0v37.9h8.6c4.4,0,8-0.6,10.9-2
						c2.9-1.4,5.1-3.9,6.3-6.9c1.3-3.5,1.9-7.3,1.7-11.1c0-6.2-1.1-11.1-3.7-14.6C370.3,17.2,365.4,15.7,359,15.6 M352.9,19.4h6
						c5.9,0,9.4,1.4,11,3.7c1.8,2.5,2.9,6.6,2.9,12.3c0.1,3.3-0.4,6.6-1.5,9.7c-0.8,2.1-2.4,3.9-4.4,4.9c-2.9,1.2-6,1.8-9.2,1.6
						h-4.9L352.9,19.4z M448.2,16.2H440v1.9l0,0v90.3h8.5c5.2,0,9.2-0.9,11.9-3.1c2.6-2.3,4.3-5.4,4.6-8.9c0.5-4.2,0.8-8.4,0.8-12.7
						V38.2c0.1-4-0.3-8.1-1.1-12c-0.6-3.1-2.4-5.9-5.1-7.6C456.9,16.9,453.2,16.3,448.2,16.2 M443.8,20h4.6c4.5,0,7.7,0.7,9.3,1.8
						c1.8,1.2,3.1,3.1,3.4,5.3c0.7,3.7,1.1,7.4,1,11.2v45.5c0,4.1-0.2,8.1-0.7,12.1c-0.2,2.5-1.4,4.9-3.3,6.5
						c-1.6,1.3-4.7,2.2-9.4,2.2h-4.8L443.8,20z M539.4,18.7l-1.9,11.5l-8.4,52.1h20.6L539.4,18.7z M537.5,30.8l1.9-0.3L537.5,30.8z
						 M533.5,78.5l5.9-36.2l5.9,36.2H533.5z M115.1,18.7l-1.9,11.5l-8.4,52.1h20.6L115.1,18.7z M113.3,30.8l1.9-0.3L113.3,30.8z
						 M109.3,78.5l5.9-36.2l5.9,36.2H109.3z"/>
				</g>
				<g id="Group_247" transform="translate(0.001 1533.381)" class="st2">
					<path id="Path_152" class="st3" d="M32.7-0.5C22.9-0.5,14.9,2.2,9,7.6C3.1,13.1,0.2,21,0.2,30.7c0,6.8,1.3,12.6,4,17.4
						c2.7,4.8,6.3,9.1,10.5,12.6l15,13.2l0,0c3.4,2.8,6.5,6.1,9.1,9.6c2.1,2.9,3.2,6.8,3.2,11.7c0.1,2.4-0.5,4.9-1.9,6.9
						c-1,1.5-2.7,2.3-5.9,2.3c-2.3,0.1-4.6-0.7-6.2-2.3c-1.9-2.1-3.2-4.6-3.8-7.3c-1-3.9-1.5-7.8-1.6-11.8L22.4,81L0,85.4L0.1,87
						c0.3,8,1.7,14.9,4.3,20.5c2.4,5.5,6.5,10.1,11.6,13.1c5.2,3,11.5,4.4,18.8,4.4h0c5.8,0.1,11.5-1.2,16.5-4l-0.9-1.6l0.9,1.6
						c4.7-2.6,8.5-6.4,11.1-11.1c2.7-4.9,4.1-10.4,4-16c0-8.1-1.8-15.2-5.5-21c-3.5-5.6-7.9-10.6-12.9-14.9L33.3,45
						c-2.6-2.2-4.9-4.8-6.9-7.6c-1.6-2.7-2.3-5.8-2.2-8.9c-0.1-2.4,0.7-4.8,2.1-6.7c1.3-1.6,3.1-2.4,6-2.5c2.8,0,4.6,0.7,5.8,1.9
						c1.5,1.7,2.5,3.8,2.9,6c0.7,3.2,1.1,6.4,1.2,9.7l0.1,2.1l22.3-3.9l-0.1-1.7c-0.3-4.3-1-8.5-2.1-12.6c-1.1-3.9-2.8-7.6-5.2-10.9
						c-2.5-3.4-5.8-6-9.6-7.7C42.8,0.3,37.8-0.7,32.7-0.5L32.7-0.5 M32.1,71.1L17.1,58l0,0c-3.9-3.3-7.1-7.2-9.6-11.6
						C5.2,42.2,4,37.1,4,30.7c0-9.1,2.6-15.7,7.6-20.3c5.1-4.7,12-7.1,21.2-7.1h0c4.5-0.1,9,0.7,13.1,2.4c3.2,1.4,6,3.7,8.1,6.5
						c2.1,2.9,3.7,6.2,4.6,9.8c0.9,3.3,1.5,6.7,1.9,10.2l-14.7,2.6c-0.2-2.7-0.6-5.5-1.2-8.2c-0.5-2.9-1.9-5.6-3.9-7.8
						c-2-2.1-5-3.1-8.4-3.1h-0.2c-3.4-0.1-6.6,1.3-8.8,3.9c-2,2.6-3.1,5.8-3,9c-0.1,3.8,0.8,7.6,2.8,10.9c2.1,3.1,4.6,6,7.5,8.4
						l14.8,13.1l0,0c4.8,4,8.9,8.7,12.2,14c3.3,5.2,4.9,11.5,4.9,19c0.1,5-1.1,9.8-3.5,14.2c-2.3,4.1-5.6,7.4-9.7,9.6
						c-4.5,2.4-9.6,3.6-14.7,3.5c-6.9,0-12.5-1.3-17-3.9c-4.5-2.6-8-6.6-10.1-11.4c-2.4-5.5-3.7-11.5-3.9-17.5l14.9-2.9
						c0.2,3.5,0.8,7,1.6,10.4c0.8,3.4,2.4,6.5,4.7,9c2.4,2.3,5.5,3.5,8.8,3.4h0.2c3.8,0,7-1.3,8.9-4c1.8-2.7,2.7-5.9,2.5-9.1
						c0-5.5-1.2-10.1-3.9-13.9C39,77.6,35.7,74.2,32.1,71.1 M654.4,0.8h-23.8l-12.4,42.5L604.9,0.8h-24.2l24.8,75.7v46.9h24.5V76.6
						L654.4,0.8z M609.2,119.7V76L585.9,4.6h16.3l16.1,51.8l15.2-51.8h15.8L626.1,76v43.8L609.2,119.7z M552.4,0.8h-26.3
						l-24.5,122.7h24.3l0.3-1.6l4.6-25.9h17.5l4.7,27.5h24L552.4,0.8z M506.1,119.7l23-115.1h20.1l23,115.1h-16.2l-4.7-27.5h-23.9
						l-4.8,27.5H506.1z M448.2,0.8h-29.9v122.7h30.8c9.5,0,17.1-1.4,22.8-4.4c5.7-2.9,10-7.8,12.3-13.7c2.4-6,3.6-13.4,3.6-22.2
						V39.7c0-8.6-1.2-15.8-3.6-21.6c-2.4-5.8-6.8-10.5-12.5-13.2C465.9,2.1,458.1,0.8,448.2,0.8 M422,119.7V4.6h26.2
						c9.5,0,16.8,1.3,21.8,3.8c4.8,2.3,8.7,6.3,10.7,11.2c2.2,5.2,3.3,11.9,3.3,20.1v43.5c0,8.4-1.1,15.4-3.3,20.8
						c-1.9,5.1-5.7,9.3-10.6,11.8c-4.9,2.6-11.9,4-21,4L422,119.7L422,119.7z M357.8,0.8h-30.4v122.7h25.5V69h6.6l14.4,54.5h25.7
						l-16.8-59.4c3.1-1.4,5.8-3.5,8-6.2c2.4-3.1,4-6.7,4.8-10.5c1-4.4,1.4-8.9,1.4-13.3c0-8.2-1.5-14.8-4.6-19.8
						c-3.2-5-8-8.7-13.6-10.5C372.9,1.8,365.9,0.8,357.8,0.8 M331.2,119.7V4.6h26.6c7.9,0,14.4,0.9,19.7,2.8c4.8,1.5,8.9,4.7,11.6,9
						c2.6,4.2,4,10.1,4,17.8c0,4.2-0.4,8.4-1.3,12.5c-0.7,3.3-2.1,6.4-4.1,9c-2.1,2.6-4.8,4.5-7.9,5.6l-1.6,0.6l16.4,57.8h-17.8
						l-14.4-54.5h-13.3v54.5L331.2,119.7z M305.3,0.8h-24.8v84.8c0,3.4-0.2,6.8-0.8,10.2c-0.3,2.6-1.3,5-2.9,7
						c-1.2,1.4-3.3,2.3-6.9,2.3c-3.3,0-5.4-0.9-6.8-2.4c-1.7-2-2.7-4.4-3-6.9c-0.5-3.4-0.7-6.8-0.7-10.2V0.8h-24.9v82.3
						c-0.1,7.4,0.8,14.8,2.9,22c1.8,6.1,5.6,11.3,10.9,14.8c5.3,3.5,12.6,5.2,21.6,5.2c9.1,0,16.4-1.6,21.7-5.2l-1-1.6l1,1.6
						c5.2-3.5,9.1-8.8,10.8-14.8c2.1-7.1,3-14.6,2.9-22L305.3,0.8z M270.1,109c4.1,0,7.5-1.1,9.7-3.7c2.1-2.5,3.4-5.6,3.8-8.8
						c0.6-3.6,0.8-7.2,0.8-10.8V4.6h17.2v78.6c0.1,7.1-0.8,14.1-2.7,20.9c-1.5,5.2-4.8,9.8-9.3,12.8l0,0c-4.4,2.9-10.9,4.5-19.5,4.5
						H270c-8.6,0-15-1.6-19.5-4.5c-4.5-3-7.9-7.5-9.4-12.8c-1.9-6.8-2.8-13.8-2.7-20.9V4.6h17.4v81.1c0,3.6,0.2,7.2,0.8,10.8
						c0.4,3.3,1.8,6.4,3.9,8.9c2.2,2.5,5.6,3.6,9.5,3.6L270.1,109L270.1,109 M219.6,0.8h-63.1v19.8h18.9v102.9H201V20.6h18.6
						L219.6,0.8z M160.3,16.8V4.6h55.5v12.2h-18.6v102.9h-18V16.8H160.3z M128.1,0.8h-26.3L77.3,123.5h24.3l0.3-1.6l4.6-25.9h17.5
						l4.7,27.5h24L128.1,0.8z M81.9,119.7l23-115.1H125l23,115.1h-16.2l-4.7-27.5h-23.9l-4.8,27.5L81.9,119.7z M359,15.7h-9.8v1.9
						l0,0v37.8h8.6c4.4,0,8-0.6,10.9-2c2.9-1.4,5.1-3.9,6.3-6.9c1.3-3.5,1.9-7.3,1.7-11.1c0-6.2-1.1-11.1-3.7-14.6
						C370.3,17.2,365.4,15.7,359,15.7 M352.9,19.4h6c5.9,0,9.4,1.5,11,3.7c1.8,2.5,2.9,6.6,2.9,12.3c0.1,3.3-0.4,6.6-1.5,9.7
						c-0.8,2.1-2.4,3.9-4.4,4.9c-2.9,1.2-6,1.8-9.2,1.6h-4.9L352.9,19.4z M448.2,16.2H440v1.9l0,0v90.3h8.5c5.2,0,9.2-0.9,11.9-3.1
						c2.6-2.3,4.3-5.4,4.6-8.9c0.5-4.2,0.8-8.4,0.8-12.7V38.2c0.1-4-0.3-8.1-1.1-12c-0.6-3.1-2.4-5.9-5.1-7.6
						C456.9,16.9,453.2,16.3,448.2,16.2 M443.8,20h4.6c4.5,0,7.7,0.7,9.3,1.8c1.8,1.2,3.1,3.1,3.4,5.3c0.7,3.7,1.1,7.4,1,11.2v45.5
						c0,4.1-0.2,8.1-0.7,12.1c-0.2,2.5-1.4,4.9-3.3,6.5c-1.6,1.3-4.7,2.2-9.4,2.2h-4.8L443.8,20z M539.4,18.7l-1.9,11.5l-8.4,52.1
						h20.6L539.4,18.7z M537.5,30.8l1.9-0.3L537.5,30.8z M533.5,78.5l5.9-36.2l5.9,36.2H533.5z M115.1,18.7l-1.9,11.5l-8.4,52.1
						h20.6L115.1,18.7z M113.3,30.8l1.9-0.3L113.3,30.8z M109.3,78.5l5.9-36.2l5.9,36.2H109.3z"/>
				</g>
			</g>
			<rect id="Rectangle_878" x="128" y="4.9" class="st4" width="842.5" height="1082.9"/>
			<rect id="Rectangle_880" x="128" y="4.9" class="st4" width="842.5" height="1082.9"/>
			<g id="Group_254" transform="translate(74.428 56.848)">
				<g id="Group_251">
					<text transform="matrix(1 0 0 1 8.033203e-06 82.5)" class="st5 st6 st7">LE</text>
					<text transform="matrix(1 0 0 1 58.7667 82.5)" class="st5 st6 st7 st8">A</text>
					<text transform="matrix(1 0 0 1 92.8913 82.5)" class="st5 st6 st7">VE THE WEEK BEHIND</text>
					<text transform="matrix(1 0 0 1 8.033203e-06 165.564)" class="st5 st6 st7">ITS FINAL</text>
					<text transform="matrix(1 0 0 1 265.4529 165.564)" class="st5 st6 st7 st9">L</text>
					<text transform="matrix(1 0 0 1 291.1328 165.564)" class="st5 st6 st7">Y</text>
				</g>
				<g id="Group_253" transform="translate(336.797 109.193)">
					<g>
						<defs>
							<rect id="SVGID_1_" x="0" y="-0.5" width="277.3" height="59.5"/>
						</defs>
						<clipPath id="SVGID_00000169557207363867043070000005903079993065038770_">
							<use xlink:href="#SVGID_1_"  style="overflow:visible;"/>
						</clipPath>
						<g id="Group_252" style="clip-path:url(#SVGID_00000169557207363867043070000005903079993065038770_);">
							<path id="Path_153" class="st11" d="M51.1,15.9c0.1-1.9-0.1-3.8-0.6-5.6c-0.5-1.6-1.4-2.7-2.7-2.7c-2.2,0.1-2.9,2.4-2.9,5.7
								c0.2,2.2,0.9,4.3,2.1,6.2c1.3,2.2,2.9,4.5,4.5,6.9c2,2.8,3.8,5.8,5.4,8.8c1.5,2.8,2.4,5.9,2.5,9c0,3.8-0.6,7.4-2.4,10.1
								s-4.7,4.4-9.3,4.4c-5.4,0-8.5-2-10.2-5.2s-2.1-7.3-2.1-11.6l8.3-0.8c-0.1,2.2,0.1,4.5,0.7,6.7c0.5,1.9,1.5,3.1,3.3,3.1
								c2.5,0,3.5-2.7,3.5-6.4c0-1.9-0.9-4.1-2.2-6.4c-0.7-1.1-1.4-2.3-2.2-3.4c-1.6-2.4-3.4-5-5.3-7.9c-1.8-2.8-3.2-5.8-4.2-8.9
								c-0.5-1.5-0.7-3.1-0.7-4.6c-0.1-3.2,0.8-6.4,2.5-9.1c1.9-2.8,5.1-4.4,8.5-4.4c5.1-0.1,8.1,2,9.7,5.1
								c1.5,3.2,2.2,6.7,2.1,10.2L51.1,15.9z"/>
							<path id="Path_154" class="st11" d="M79,19.2l-0.2-1.5h-0.5L78,19.2l-2.4,18.2h5.8L79,19.2z M64.6,58.1l8.7-57.6h10.4
								l8.7,57.6h-8.2l-1.6-11.8h-8.2l-1.6,11.8H64.6z"/>
							<path id="Path_155" class="st11" d="M94.6,9.1V0.4h24.5v8.7h-8v48.9h-8.5V9.1H94.6z"/>
							<path id="Path_156" class="st11" d="M149.3,0.4v45.8c0,2.2-0.5,4.3-1.4,6.3c-0.7,1.7-1.9,3.1-3.4,4.2c-1.9,1.4-4.2,2.1-6.5,2
								c-2.4,0.1-4.7-0.6-6.6-2c-1.4-1.1-2.6-2.6-3.3-4.2c-0.9-2-1.4-4.1-1.4-6.3V0.4h8.5v45.8c-0.1,1.3,0.3,2.6,1.2,3.6
								c0.4,0.4,1,0.7,1.6,0.6c1.3,0,2.3-0.9,2.5-2.1c0.2-0.7,0.3-1.4,0.3-2.1V0.4H149.3z"/>
							<path id="Path_157" class="st11" d="M168.2,25.9c1.4,0.1,2.9-0.4,4-1.3c1.3-1.1,2.3-3.2,2.3-7.3s-1-6.3-2.3-7.4
								c-1.1-0.9-2.6-1.3-4-1.2V25.9z M174.9,58.1l-4.4-24.3h-2.3v24.3h-8.5V0.4h8.5c10.1,0,14.4,5.7,14.4,16.6
								c0,5.7-1.5,10.9-4.7,13.1l5.4,27.9L174.9,58.1z"/>
							<path id="Path_158" class="st11" d="M201.3,49.6c2.9,0,4.5-0.3,5.4-3.1c0.5-2,0.8-4.1,0.8-6.1c0.1-2.7,0.1-6.4,0.1-11.1
								s0-8.4-0.1-11.1c0-2.1-0.3-4.1-0.8-6.1c-0.9-2.7-2.5-3.1-5.4-3.1V49.6z M192.8,58.1V0.4h6.7c7.8,0,12.1,1.6,14.3,6
								c2.2,4.4,2.5,11.6,2.5,22.9s-0.3,18.4-2.5,22.8c-2.3,4.4-6.5,6-14.3,6L192.8,58.1z"/>
							<path id="Path_159" class="st11" d="M236.6,19.2l-0.2-1.5h-0.5l-0.2,1.5l-2.4,18.2h5.8L236.6,19.2z M222.2,58.1l8.7-57.6
								h10.4l8.7,57.6h-8.2l-1.6-11.8H232l-1.6,11.8L222.2,58.1z"/>
							<path id="Path_160" class="st11" d="M264.2,18.8l0.2,0.6h0.2l0.2-0.6L269,0.4h8.3l-8.6,33.1v24.5h-8.5V33.5l-8.6-33.1h8.3
								L264.2,18.8z"/>
							<rect id="Rectangle_881" x="0" y="-0.5" class="st12" width="19.8" height="59.5"/>
						</g>
					</g>
				</g>
			</g>
			<text transform="matrix(1 0 0 1 81.296 1743.302)" class="st11 st13 st14">All product images and labels provided for information and illustrative purposes onl</text>
			<text transform="matrix(1 0 0 1 483.0162 1743.302)" class="st11 st13 st14">y</text>
			<text transform="matrix(1 0 0 1 487.7572 1743.302)" class="st11 st13 st14">, and do not represent the actual cannabis product, product label or it</text>
			<text transform="matrix(1 0 0 1 823.4722 1743.302)" class="st11 st13 st14"></text>
			<text transform="matrix(1 0 0 1 825.751 1743.302)" class="st11 st13 st14">s appearance.</text>
			
				<image style="overflow:visible;opacity:0.2;enable-background:new    ;" width="1874" height="2483" id="Rectangle_883" xlink:href="95ED1EAC4EFED3A1.png"  transform="matrix(0.5604 -2.445409e-03 2.445409e-03 0.5604 2.9 125.6731)">
			</image>
			<g>
				<defs>
					<rect id="SVGID_00000017509929116167808820000007290012047099198616_" x="668" y="-0.5" width="424" height="292"/>
				</defs>
				<clipPath id="SVGID_00000072984048623902707650000017910533080411959481_">
					<use xlink:href="#SVGID_00000017509929116167808820000007290012047099198616_"  style="overflow:visible;"/>
				</clipPath>
				
					<g id="Mask_Group_1" transform="translate(668.001)" style="clip-path:url(#SVGID_00000072984048623902707650000017910533080411959481_);">
					
						<image style="overflow:visible;enable-background:new    ;" width="1000" height="674" id="Rectangle_879" xlink:href="95ED1EAC4EFED3A7.png"  transform="matrix(1.046 0 0 1.046 7.265 -11.116)">
					</image>
				</g>
			</g>
		</g>
	</g>
</g>
</svg>
